<?xml version="1.0" encoding="UTF-8"?>
<!DOCTYPE svg PUBLIC "-//W3C//DTD SVG 1.1//EN" "http://www.w3.org/Graphics/SVG/1.1/DTD/svg11.dtd">
<!-- Creator: CorelDRAW 2021 (64-Bit) -->
<svg xmlns="http://www.w3.org/2000/svg" xml:space="preserve" width="46.9688mm" height="24.035mm" version="1.1" style="shape-rendering:geometricPrecision; text-rendering:geometricPrecision; image-rendering:optimizeQuality; fill-rule:evenodd; clip-rule:evenodd"
viewBox="0 0 158.3 81.01"
 xmlns:xlink="http://www.w3.org/1999/xlink"
 xmlns:xodm="http://www.corel.com/coreldraw/odm/2003">
 <defs>
  <style type="text/css">
   <![CDATA[
    .fil85 {fill:none}
    .fil84 {fill:#5B5B5B}
    .fil83 {fill:#2B2A29}
    .fil43 {fill:#FFF383;fill-rule:nonzero}
    .fil42 {fill:#FFF182;fill-rule:nonzero}
    .fil41 {fill:#FDEC7D;fill-rule:nonzero}
    .fil44 {fill:#FCEC7D;fill-rule:nonzero}
    .fil40 {fill:#FCE97A;fill-rule:nonzero}
    .fil45 {fill:#FBE678;fill-rule:nonzero}
    .fil39 {fill:#FBE677;fill-rule:nonzero}
    .fil38 {fill:#F9E274;fill-rule:nonzero}
    .fil46 {fill:#F8E074;fill-rule:nonzero}
    .fil37 {fill:#F7DE70;fill-rule:nonzero}
    .fil47 {fill:#F6DC6F;fill-rule:nonzero}
    .fil36 {fill:#F6DA6D;fill-rule:nonzero}
    .fil48 {fill:#F3D76C;fill-rule:nonzero}
    .fil35 {fill:#F4D66A;fill-rule:nonzero}
    .fil49 {fill:#F0D168;fill-rule:nonzero}
    .fil34 {fill:#F2D368;fill-rule:nonzero}
    .fil33 {fill:#F0D065;fill-rule:nonzero}
    .fil50 {fill:#EDCC64;fill-rule:nonzero}
    .fil32 {fill:#EDCC61;fill-rule:nonzero}
    .fil51 {fill:#E9C760;fill-rule:nonzero}
    .fil31 {fill:#EBC85F;fill-rule:nonzero}
    .fil30 {fill:#EAC55C;fill-rule:nonzero}
    .fil52 {fill:#E6C25C;fill-rule:nonzero}
    .fil29 {fill:#E8C25A;fill-rule:nonzero}
    .fil53 {fill:#E3BE58;fill-rule:nonzero}
    .fil28 {fill:#E5BE56;fill-rule:nonzero}
    .fil54 {fill:#E0B955;fill-rule:nonzero}
    .fil27 {fill:#E3BB54;fill-rule:nonzero}
    .fil26 {fill:#E1B751;fill-rule:nonzero}
    .fil55 {fill:#DDB452;fill-rule:nonzero}
    .fil25 {fill:#DFB44F;fill-rule:nonzero}
    .fil56 {fill:#DAAF4E;fill-rule:nonzero}
    .fil24 {fill:#DDB14D;fill-rule:nonzero}
    .fil23 {fill:#DBAE49;fill-rule:nonzero}
    .fil57 {fill:#D7AB4B;fill-rule:nonzero}
    .fil22 {fill:#D9AA47;fill-rule:nonzero}
    .fil58 {fill:#D4A647;fill-rule:nonzero}
    .fil21 {fill:#D7A745;fill-rule:nonzero}
    .fil59 {fill:#D1A144;fill-rule:nonzero}
    .fil20 {fill:#D5A443;fill-rule:nonzero}
    .fil60 {fill:#CE9D41;fill-rule:nonzero}
    .fil19 {fill:#D3A03F;fill-rule:nonzero}
    .fil18 {fill:#D19D3D;fill-rule:nonzero}
    .fil61 {fill:#CA983E;fill-rule:nonzero}
    .fil17 {fill:#CF993B;fill-rule:nonzero}
    .fil62 {fill:#C8933B;fill-rule:nonzero}
    .fil16 {fill:#CD9639;fill-rule:nonzero}
    .fil15 {fill:#CB9338;fill-rule:nonzero}
    .fil63 {fill:#C48E38;fill-rule:nonzero}
    .fil14 {fill:#C88F35;fill-rule:nonzero}
    .fil64 {fill:#C18A36;fill-rule:nonzero}
    .fil13 {fill:#C68C33;fill-rule:nonzero}
    .fil65 {fill:#BE8533;fill-rule:nonzero}
    .fil12 {fill:#C58931;fill-rule:nonzero}
    .fil11 {fill:#C3862F;fill-rule:nonzero}
    .fil66 {fill:#BB8130;fill-rule:nonzero}
    .fil10 {fill:#C0822D;fill-rule:nonzero}
    .fil67 {fill:#B87D2E;fill-rule:nonzero}
    .fil9 {fill:#BE802C;fill-rule:nonzero}
    .fil92 {fill:#B67A2D;fill-rule:nonzero}
    .fil8 {fill:#BC7D2A;fill-rule:nonzero}
    .fil68 {fill:#B5782C;fill-rule:nonzero}
    .fil91 {fill:#B3752B;fill-rule:nonzero}
    .fil7 {fill:#BA7929;fill-rule:nonzero}
    .fil69 {fill:#B2732A;fill-rule:nonzero}
    .fil6 {fill:#B87627;fill-rule:nonzero}
    .fil90 {fill:#B07129;fill-rule:nonzero}
    .fil70 {fill:#AE6F28;fill-rule:nonzero}
    .fil5 {fill:#B67225;fill-rule:nonzero}
    .fil89 {fill:#AD6D27;fill-rule:nonzero}
    .fil4 {fill:#B47024;fill-rule:nonzero}
    .fil71 {fill:#AC6B26;fill-rule:nonzero}
    .fil88 {fill:#AA6925;fill-rule:nonzero}
    .fil3 {fill:#B26D23;fill-rule:nonzero}
    .fil72 {fill:#A96724;fill-rule:nonzero}
    .fil2 {fill:#B06A21;fill-rule:nonzero}
    .fil87 {fill:#A66423;fill-rule:nonzero}
    .fil93 {fill:#AF6921;fill-rule:nonzero}
    .fil73 {fill:#A56323;fill-rule:nonzero}
    .fil1 {fill:#AD6720;fill-rule:nonzero}
    .fil86 {fill:#A46022;fill-rule:nonzero}
    .fil94 {fill:#AC651F;fill-rule:nonzero}
    .fil0 {fill:#AC641F;fill-rule:nonzero}
    .fil74 {fill:#A35F21;fill-rule:nonzero}
    .fil95 {fill:#AB631E;fill-rule:nonzero}
    .fil100 {fill:#AA621D;fill-rule:nonzero}
    .fil82 {fill:#A15D20;fill-rule:nonzero}
    .fil96 {fill:#A9611D;fill-rule:nonzero}
    .fil75 {fill:#9F5B1F;fill-rule:nonzero}
    .fil97 {fill:#A85F1C;fill-rule:nonzero}
    .fil81 {fill:#9E591F;fill-rule:nonzero}
    .fil98 {fill:#A65D1B;fill-rule:nonzero}
    .fil76 {fill:#9D581E;fill-rule:nonzero}
    .fil99 {fill:#A65C1B;fill-rule:nonzero}
    .fil80 {fill:#9B561D;fill-rule:nonzero}
    .fil77 {fill:#99541D;fill-rule:nonzero}
    .fil79 {fill:#98521C;fill-rule:nonzero}
    .fil78 {fill:#97511C;fill-rule:nonzero}
   ]]>
  </style>
     <clipPath id="id0" style="clip-rule:nonzero">
      <path d="M79.15 81.01c43.71,0 79.15,-18.13 79.15,-40.5 0,-22.37 -35.44,-40.5 -79.15,-40.5 -43.71,0 -79.15,18.13 -79.15,40.5 0,22.37 35.44,40.5 79.15,40.5z"/>
     </clipPath>
    <clipPath id="id1">
     <path d="M79.15 2.38c40,0 72.42,17.07 72.42,38.13 0,21.06 -32.42,38.13 -72.42,38.13 -40,0 -72.42,-17.07 -72.42,-38.13 0,-21.06 32.42,-38.13 72.42,-38.13z"/>
    </clipPath>
      <mask id="id2">
  <linearGradient id="id3" gradientUnits="userSpaceOnUse" x1="73.27" y1="28.3" x2="73.27" y2="54.87">
   <stop offset="0" style="stop-opacity:1; stop-color:white"/>
   <stop offset="1" style="stop-opacity:0; stop-color:white"/>
  </linearGradient>
       <rect style="fill:url(#id3)" x="-34.06" y="-13.56" width="289.59" height="104.3"/>
      </mask>
       <clipPath id="id4" style="clip-rule:nonzero">
        <path d="M57.02 41.61l-0.18 -1.37 -0.32 -1.92 -0.36 -1.92 -0.45 -1.95 -0.48 -1.92 -0.07 -0.31 -0.11 -0.31 -0.07 -0.34 -0.11 -0.31 -0.09 -0.31 -0.11 -0.28 -0.07 -0.31 -0.11 -0.31 -0.27 -0.9 -0.3 -0.87 -0.34 -0.87 -0.3 -0.77 -0.34 -0.77 -0.34 -0.71 -0.32 -0.74 -0.34 -0.62 -0.02 0.37 -0.09 0.46 -0.11 0.46 -0.14 0.37 -0.11 -0.12 -0.09 -0.25 -0.18 -0.15 -0.18 -0.15 0.07 0.22 0.07 0.19 0.05 0.28 0 0.31 -0.05 0.25 -0.11 0.31 -0.18 0.31 -0.23 0.31 -0.07 -0.31 -0.11 -0.31 -0.11 -0.37 -0.16 -0.25 -0.16 -0.31 -0.18 -0.25 -0.23 -0.31 -0.16 -0.22 0.11 0.37 0.2 0.56 0.14 0.56 0.11 0.62 0.05 0.59 -0.05 0.56 -0.18 0.49 -0.34 0.43 0 -0.28 -0.07 -0.25 -0.09 -0.25 -0.11 -0.22 -0.02 0.37 -0.09 0.46 -0.02 0.4 -0.05 0.37 -0.16 0.19 -0.14 0.31 -0.2 0.31 -0.11 0.28 -0.02 -0.22 -0.05 -0.25 -0.05 -0.43 0.05 -0.4 -0.16 0.4 -0.02 0.43 -0.05 0.4 0 0.34 -0.52 0.71 -0.11 -0.96 -0.05 -0.77 0.07 -0.71 0.11 -0.56 0.16 -0.59 0.27 -0.49 0.25 -0.46 0.32 -0.46 -0.16 0.06 -0.18 0.15 -0.16 0.19 -0.16 0.15 -0.11 0.22 -0.14 0.25 -0.11 0.22 -0.11 0.19 -0.05 -0.49 0.07 -0.15 0.09 -0.22 0.07 -0.15 0.07 -0.19 0.11 -0.22 0.11 -0.15 0.11 -0.22 0.11 -0.15 -0.11 0 -0.07 0.06 -0.11 0.09 -0.11 0.06 -0.07 0.09 -0.11 0.12 -0.09 0.09 -0.11 0.09 0.05 -0.46 0.07 -0.46 0.09 -0.4 0.14 -0.31 0.11 -0.37 0.2 -0.31 0.14 -0.25 0.2 -0.25 -0.2 0.03 -0.23 0 -0.18 0.12 -0.18 0.09 -0.2 0.06 -0.18 0.15 -0.16 0.09 -0.11 0.09 0 -0.25 0 -0.31 0.09 -0.37 0 -0.34 -0.11 0.31 -0.09 0.34 -0.11 0.37 -0.07 0.4 -0.18 0.12 -0.27 0.15 -0.18 0.09 -0.23 0.15 -0.27 0.15 -0.18 0.15 -0.23 0.15 -0.23 0.15 -0.66 0.06 -0.02 0.4 -0.16 0.09 -0.16 0.15 -0.14 0.15 -0.16 0.15 -0.16 0.22 -0.18 0.22 -0.16 0.15 -0.14 0.19 0 -0.87 0.11 -0.77 0.18 -0.77 0.27 -0.68 0.25 -0.65 0.32 -0.62 0.34 -0.53 0.34 -0.46 -0.2 0.09 -0.14 0.06 -0.16 0.15 -0.16 0.09 -0.11 0.12 -0.14 0.19 -0.11 0.15 -0.09 0.12 -0.18 -0.12 0.16 -0.34 0.18 -0.31 0.27 -0.31 0.23 -0.28 0.3 -0.19 0.3 -0.22 0.32 -0.22 0.3 -0.15 0.3 -0.09 0.32 -0.09 0.3 -0.12 0.3 -0.09 0.23 -0.06 0.27 -0.09 0.18 -0.06 0.2 -0.03 0.07 -0.06 0.11 -0.06 0.11 -0.03 0.16 -0.06 0.11 0 0.07 -0.06 0.07 -0.03 0.05 0 0.11 0 0.16 0 0.18 0 0.23 0 0.18 -0.06 0.2 0 0.18 0 0.16 -0.06 -0.2 -0.25 -0.11 -0.22 -0.07 -0.25 -0.05 -0.31 -0.02 0.22 -0.05 0.25 -0.07 0.25 0 0.31 -0.45 0 0 -0.15 0 -0.49 0 -0.62 0.02 -0.68 -0.14 0.46 -0.11 0.56 -0.09 0.59 -0.07 0.46 -0.05 0 -0.07 0.03 -0.07 0.06 -0.11 0 -0.16 0.06 -0.11 0.03 -0.11 0.06 -0.07 0.06 -0.11 -0.22 -0.16 -0.15 -0.11 -0.15 -0.16 -0.09 -0.18 -0.15 -0.16 -0.06 -0.18 -0.09 -0.16 -0.06 0.09 -0.25 0.02 -0.31 0.11 -0.31 0.11 -0.31 0.11 -0.31 0.16 -0.31 0.11 -0.31 0.11 -0.31 -0.18 0.15 -0.2 0.25 -0.18 0.31 -0.16 0.31 -0.14 0.4 -0.16 0.31 -0.11 0.37 -0.11 0.31 -0.34 -0.37 0.07 -0.25 0.16 -0.4 0.11 -0.43 0.16 -0.4 -0.16 0.15 -0.11 0.15 -0.16 0.15 -0.11 0.25 -0.14 0.22 -0.11 0.22 -0.11 0.25 -0.11 0.25 -0.11 -0.03 -0.16 -0.06 -0.11 -0.06 -0.16 -0.03 -0.14 -0.06 -0.16 -0.06 -0.07 -0.03 -0.09 0 0.09 -0.15 0.07 -0.22 0.11 -0.22 0.18 -0.31 0.16 -0.25 0.16 -0.25 0.14 -0.22 0.11 -0.22 -0.11 -0.4 -0.11 0.15 -0.11 0.22 -0.14 0.25 -0.16 0.31 -0.18 0.31 -0.16 0.31 -0.16 0.25 -0.11 0.22 0.09 -0.31 0.02 -0.37 0.09 -0.34 0.02 -0.31 -0.14 0.15 -0.16 0.15 -0.16 0.09 -0.14 0.15 -0.11 0.15 -0.16 0.22 -0.16 0.19 -0.11 0.15 -0.11 -0.03 -0.11 0 -0.14 0 -0.11 0 -0.16 0.03 -0.16 0 -0.14 0.06 -0.11 0 0.34 -0.37 0.34 -0.4 0.41 -0.31 0.41 -0.31 0.43 -0.25 0.41 -0.28 0.45 -0.19 0.41 -0.15 0.11 -0.06 0.11 -0.06 0.11 -0.03 0.11 0 0.09 -0.06 0.11 0 0.07 -0.06 0.07 0 0.2 0 0.23 -0.03 0.18 -0.06 0.18 0 0.23 0 0.2 0.06 0.23 0.03 0.25 0 0.23 0.06 0.27 0.06 0.27 0.09 0.25 0.09 0.32 0.12 0.34 0.09 0.3 0.15 0.39 0.15 -0.09 -0.22 -0.14 -0.25 -0.2 -0.15 -0.18 -0.15 -0.18 -0.09 -0.27 -0.12 -0.18 -0.03 -0.2 -0.06 -0.18 -0.77 -0.18 -0.68 -0.27 -0.65 -0.27 -0.62 -0.25 -0.53 -0.32 -0.53 -0.3 -0.56 -0.34 -0.56 0.07 0 0.11 0 0.11 0 0.11 0 0.11 0 0.11 0 0.09 0 0.07 0 0.07 0.19 0.11 0.22 0.09 0.22 0.11 0.25 0.07 0.31 0.11 0.31 0.16 0.31 0.11 0.37 -0.09 -0.46 -0.07 -0.46 -0.07 -0.46 -0.09 -0.53 0.32 0.31 0.3 0.4 0.34 0.43 0.3 0.49 0.32 0.53 0.25 0.46 0.2 0.4 0.18 0.37 0.07 -0.31 0.11 -0.31 0.11 -0.37 0.11 -0.34 0.16 -0.37 0.11 -0.31 0.18 -0.31 0.11 -0.25 0.27 0.03 0.11 -0.25 0.16 -0.25 0.11 -0.22 0.14 -0.15 0.05 0.09 0.11 0.28 0.16 0.34 0.14 0.28 -0.14 -1.45 0.25 -0.15 0.05 0.22 0.07 0.56 0.11 0.77 0.11 0.77 -0.02 -0.62 0.02 -0.83 0.09 -0.87 0.07 -0.77 0.07 -0.06 0.11 0 0.11 -0.03 0.09 -0.06 0.11 0 0.14 0 0.11 0 0.11 0 -0.11 0.71 0.05 -0.09 0.11 -0.25 0.11 -0.31 0.11 -0.28 0.41 -0.03 -0.07 0.25 -0.07 0.37 -0.09 0.34 -0.02 0.31 0.11 -0.15 0.11 -0.15 0.14 -0.15 0.16 -0.15 0.11 -0.09 0.16 -0.09 0.18 -0.12 0.18 -0.09 -0.25 0.53 -0.32 0.62 -0.25 0.71 -0.27 0.77 -0.27 0.87 -0.23 0.93 -0.18 0.93 -0.18 0.99 -0.55 -0.4 -0.07 -0.28 -0.11 -0.31 -0.11 -0.34 -0.16 -0.28 -0.14 -0.31 -0.2 -0.25 -0.18 -0.22 -0.23 -0.19 -0.34 0.31 0.23 0.15 0.18 0.15 0.2 0.19 0.18 0.15 0.16 0.22 0.18 0.22 0.18 0.34 0.23 0.43 0.55 0.4 -0.05 0.37 -0.07 0.4 0 0.46 -0.05 0.4 0.16 -0.46 0.07 -0.4 0.16 -0.4 0.11 -0.37 0.3 -0.31 0.3 -0.31 0.34 -0.25 0.32 -0.28 0.36 -0.19 0.27 -0.15 0.34 -0.12 0.34 -0.15 0.34 -0.09 0.32 -0.09 0.34 -0.06 0.3 -0.06 0.3 -0.03 0.27 0 0.27 0 0.23 0 -0.11 0.09 -0.2 0.15 -0.11 0.09 -0.14 0.15 -0.11 0.15 -0.11 0.12 -0.11 0.09 -0.09 0.15 0.09 -0.53 -0.11 0.15 -0.16 0.12 -0.16 0.19 -0.11 0.22 -0.14 0.25 -0.11 0.22 -0.11 0.15 -0.09 0.15 0.05 -0.25 0.05 -0.37 0 -0.31 0 -0.25 -0.09 0.4 -0.11 0.25 -0.07 0.22 -0.07 0.22 -0.09 0.19 -0.07 0.15 -0.11 0.15 -0.11 0.22 -0.64 0.53 0.02 -0.62 -0.23 0.71 -0.27 0.22 -0.25 0.25 -0.34 0.22 -0.32 0.25 -0.3 0.25 -0.27 0.28 -0.23 0.15 -0.18 0.15 0.05 0.09 0.02 0.15 0.05 0.15 0.11 0.25 0.23 -0.03 0.23 -0.06 0.3 0 0.27 0.06 0.3 0 0.32 0.09 0.3 0.09 0.32 0.15 0.3 0.15 0.3 0.12 0.32 0.15 0.25 0.15 0.27 0.19 0.3 0.22 0.2 0.15 0.23 0.15 0.14 0.15 0.16 0.15 0.16 0.15 0.11 0.15 0.14 0.15 0.09 0.09 0.07 0.15 0.07 0.15 -0.07 -0.09 -0.16 0 -0.11 -0.06 -0.14 0 -0.11 0.06 -0.11 0.06 -0.09 0.03 -0.11 0 0.11 0.22 0.16 0.22 0.11 0.19 0.05 0.06 -0.43 -0.22 -0.07 -0.09 -0.07 -0.15 -0.11 -0.09 -0.11 -0.15 -0.09 -0.12 -0.14 -0.19 -0.16 -0.12 -0.18 -0.15 0.07 0.15 0.11 0.15 0.05 0.15 0.02 0.15 -0.52 -0.15 -0.11 -0.19 -0.11 -0.22 -0.16 -0.09 -0.11 -0.12 -0.14 -0.15 -0.16 -0.09 -0.18 -0.15 -0.2 -0.15 0.09 0.22 0.14 0.25 0.09 0.31 0.02 0.22 -0.18 -0.06 -0.16 0 -0.18 0 -0.23 0 -0.2 0.06 -0.23 0.09 -0.18 0.09 -0.23 0.06 -0.11 0.15 0 0.15 0 0.22 0 0.25 -0.57 0.22 0.16 0.25 0.07 0.25 0.07 0.22 0 0.06 -0.64 -0.31 0.3 0.46 0.27 0.56 0.3 0.56 0.27 0.59 0.27 0.62 0.25 0.65 0.23 0.68 0.27 0.71 0.11 0.37 0.09 0.4 0.14 0.37 0.11 0.4 0.11 0.37 0.11 0.37 0.09 0.37 0.14 0.4 0.39 1.54 0.39 1.54 0.36 1.54 0.32 1.39 0.25 1.45 0.23 1.27 0.03 0.19 -1.01 1.14z"/>
       </clipPath>
       <clipPath id="id5" style="clip-rule:nonzero">
        <path d="M61.22 54.11l-0.2 -0.92 -1.4 0 0.09 0.41 0.17 0.93 1.35 -0.42zm-1.04 -16.07l0.09 -1.07 0.2 -1.97 0.02 -0.31 0.07 -0.33 0.02 -0.34 0.07 -0.33 0.05 -0.32 0.07 -0.3 0.02 -0.31 0.07 -0.33 0.14 -0.94 0.17 -0.91 0.22 -0.93 0.18 -0.83 0.23 -0.84 0.24 -0.78 0.21 -0.8 0.25 -0.69 0.08 0.35 0.16 0.41 0.18 0.4 0.19 0.31 0.1 -0.15 0.05 -0.26 0.16 -0.2 0.16 -0.2 -0.04 0.23 -0.04 0.2 -0 0.28 0.05 0.29 0.08 0.22 0.16 0.26 0.23 0.24 0.27 0.22 0.02 -0.32 0.07 -0.33 0.06 -0.39 0.12 -0.28 0.11 -0.34 0.15 -0.29 0.18 -0.36 0.13 -0.26 -0.06 0.39 -0.12 0.59 -0.06 0.57 -0.02 0.62 0.04 0.57 0.13 0.51 0.26 0.41 0.41 0.3 -0.04 -0.26 0.03 -0.26 0.06 -0.26 0.08 -0.24 0.08 0.34 0.16 0.41 0.08 0.37 0.1 0.34 0.19 0.13 0.18 0.25 0.25 0.23 0.16 0.23 -0.01 -0.21 0.01 -0.25 -0.02 -0.42 -0.1 -0.37 0.22 0.33 0.09 0.4 0.1 0.37 0.05 0.32 0.63 0.51 -0.03 -0.95 -0.07 -0.75 -0.17 -0.65 -0.2 -0.49 -0.25 -0.51 -0.35 -0.38 -0.32 -0.36 -0.39 -0.34 0.17 0.01 0.21 0.09 0.19 0.13 0.18 0.1 0.15 0.17 0.17 0.19 0.15 0.17 0.14 0.14 -0.03 -0.48 -0.09 -0.13 -0.12 -0.18 -0.09 -0.13 -0.1 -0.15 -0.15 -0.17 -0.14 -0.11 -0.15 -0.17 -0.14 -0.11 0.11 -0.04 0.08 0.04 0.13 0.05 0.12 0.02 0.08 0.07 0.13 0.08 0.1 0.06 0.13 0.05 -0.11 -0.43 -0.14 -0.42 -0.15 -0.35 -0.18 -0.25 -0.17 -0.32 -0.25 -0.23 -0.17 -0.19 -0.24 -0.17 0.21 -0.03 0.23 -0.07 0.2 0.06 0.2 0.03 0.21 -0.01 0.21 0.09 0.17 0.04 0.13 0.05 -0.04 -0.23 -0.05 -0.29 -0.15 -0.32 -0.05 -0.32 0.16 0.26 0.14 0.29 0.17 0.32 0.13 0.36 0.2 0.06 0.3 0.06 0.2 0.03 0.25 0.08 0.3 0.06 0.21 0.09 0.25 0.08 0.25 0.08 0.67 -0.15 0.08 0.37 0.17 0.04 0.18 0.1 0.16 0.1 0.18 0.1 0.19 0.16 0.21 0.15 0.18 0.1 0.16 0.13 -0.13 -0.82 -0.23 -0.7 -0.3 -0.68 -0.37 -0.56 -0.35 -0.54 -0.41 -0.49 -0.42 -0.39 -0.41 -0.33 0.22 0.02 0.15 0.02 0.18 0.1 0.17 0.04 0.13 0.08 0.16 0.13 0.14 0.11 0.11 0.09 0.16 -0.17 -0.21 -0.27 -0.23 -0.24 -0.32 -0.21 -0.27 -0.19 -0.32 -0.08 -0.33 -0.11 -0.35 -0.11 -0.32 -0.05 -0.31 0 -0.33 0.01 -0.32 -0.02 -0.31 0 -0.24 0.01 -0.29 -0 -0.19 -0 -0.21 0.03 -0.08 -0.04 -0.12 -0.02 -0.12 0.01 -0.17 -0.01 -0.11 0.04 -0.08 -0.04 -0.07 -0.01 -0.05 0.01 -0.11 0.04 -0.16 0.05 -0.18 0.06 -0.23 0.07 -0.19 -0 -0.21 0.06 -0.18 0.06 -0.17 -0.01 0.17 -0.3 0.08 -0.24 0.03 -0.26 0 -0.31 0.05 0.2 0.08 0.22 0.1 0.21 0.05 0.29 0.46 -0.14 -0.02 -0.15 -0.07 -0.47 -0.09 -0.59 -0.12 -0.64 0.2 0.4 0.2 0.49 0.18 0.53 0.14 0.42 0.05 -0.01 0.07 0.01 0.08 0.04 0.11 -0.04 0.17 0.01 0.12 -0.01 0.12 0.02 0.08 0.04 0.08 -0.24 0.14 -0.2 0.09 -0.18 0.15 -0.14 0.16 -0.2 0.15 -0.11 0.17 -0.14 0.15 -0.11 -0.13 -0.21 -0.07 -0.29 -0.16 -0.26 -0.16 -0.26 -0.16 -0.26 -0.21 -0.24 -0.16 -0.26 -0.16 -0.26 0.21 0.09 0.24 0.17 0.23 0.24 0.21 0.24 0.2 0.34 0.21 0.24 0.17 0.32 0.16 0.26 0.29 -0.46 -0.1 -0.21 -0.22 -0.33 -0.18 -0.38 -0.22 -0.33 0.18 0.1 0.14 0.11 0.18 0.1 0.15 0.2 0.17 0.16 0.15 0.17 0.15 0.2 0.15 0.2 0.11 -0.07 0.15 -0.11 0.11 -0.09 0.16 -0.08 0.13 -0.1 0.15 -0.11 0.06 -0.05 0.09 -0.03 -0.11 -0.12 -0.1 -0.18 -0.15 -0.17 -0.23 -0.24 -0.2 -0.19 -0.2 -0.18 -0.17 -0.16 -0.15 -0.17 0.06 -0.42 0.14 0.11 0.15 0.17 0.17 0.19 0.21 0.24 0.23 0.24 0.21 0.24 0.2 0.18 0.15 0.17 -0.14 -0.26 -0.08 -0.35 -0.14 -0.29 -0.07 -0.29 0.16 0.1 0.18 0.1 0.17 0.04 0.16 0.1 0.14 0.11 0.19 0.16 0.19 0.13 0.14 0.11 0.11 -0.07 0.11 -0.04 0.14 -0.04 0.11 -0.04 0.16 -0.02 0.16 -0.05 0.15 0.02 0.11 -0.04 -0.4 -0.25 -0.4 -0.27 -0.46 -0.17 -0.46 -0.17 -0.47 -0.1 -0.45 -0.14 -0.48 -0.03 -0.43 -0.02 -0.12 -0.02 -0.12 -0.02 -0.12 0.01 -0.11 0.04 -0.1 -0.03 -0.11 0.04 -0.08 -0.04 -0.07 0.02 -0.21 0.06 -0.23 0.04 -0.19 -0 -0.18 0.06 -0.23 0.07 -0.2 0.12 -0.22 0.1 -0.25 0.08 -0.22 0.13 -0.26 0.14 -0.26 0.17 -0.24 0.17 -0.3 0.22 -0.33 0.19 -0.27 0.24 -0.37 0.27 0.06 -0.23 0.1 -0.28 0.18 -0.21 0.16 -0.2 0.17 -0.14 0.26 -0.2 0.18 -0.09 0.2 -0.12 0.07 -0.79 0.08 -0.7 0.18 -0.7 0.18 -0.67 0.17 -0.58 0.24 -0.6 0.22 -0.62 0.26 -0.64 -0.07 0.02 -0.11 0.04 -0.11 0.04 -0.11 0.04 -0.11 0.04 -0.11 0.04 -0.09 0.03 -0.07 0.02 -0.04 0.2 -0.08 0.24 -0.06 0.23 -0.08 0.27 -0.02 0.31 -0.07 0.33 -0.11 0.34 -0.06 0.39 0.02 -0.47 0 -0.46 0 -0.46 0.01 -0.53 -0.27 0.39 -0.24 0.47 -0.28 0.52 -0.22 0.56 -0.24 0.6 -0.18 0.52 -0.15 0.45 -0.13 0.41 -0.11 -0.27 -0.16 -0.26 -0.17 -0.32 -0.16 -0.29 -0.21 -0.3 -0.16 -0.26 -0.23 -0.24 -0.15 -0.2 -0.27 0.11 -0.15 -0.2 -0.2 -0.18 -0.15 -0.17 -0.16 -0.1 -0.03 0.1 -0.07 0.3 -0.11 0.37 -0.1 0.31 -0.08 -1.42 -0.27 -0.07 -0.01 0.22 0.01 0.55 -0 0.77 -0 0.77 -0.07 -0.59 -0.15 -0.78 -0.22 -0.79 -0.18 -0.71 -0.08 -0.04 -0.11 0.04 -0.12 0.01 -0.1 -0.03 -0.11 0.04 -0.14 0.04 -0.11 0.04 -0.11 0.04 0.22 0.64 -0.06 -0.07 -0.15 -0.2 -0.16 -0.26 -0.16 -0.23 -0.42 0.1 0.1 0.21 0.12 0.33 0.14 0.29 0.07 0.29 -0.14 -0.11 -0.14 -0.11 -0.16 -0.1 -0.18 -0.1 -0.13 -0.05 -0.17 -0.04 -0.2 -0.06 -0.2 -0.03 0.33 0.42 0.41 0.49 0.36 0.6 0.39 0.65 0.4 0.74 0.36 0.81 0.32 0.82 0.33 0.88 0.49 -0.55 0.03 -0.29 0.07 -0.33 0.06 -0.36 0.12 -0.31 0.09 -0.34 0.17 -0.3 0.15 -0.26 0.2 -0.25 0.39 0.19 -0.21 0.22 -0.16 0.2 -0.18 0.24 -0.16 0.2 -0.13 0.26 -0.15 0.26 -0.13 0.38 -0.16 0.48 -0.49 0.55 0.1 0.34 0.13 0.36 0.07 0.44 0.1 0.37 -0.23 -0.39 -0.13 -0.36 -0.22 -0.33 -0.17 -0.32 -0.34 -0.2 -0.34 -0.2 -0.38 -0.13 -0.36 -0.16 -0.39 -0.06 -0.3 -0.06 -0.36 -0.01 -0.37 -0.04 -0.36 0.02 -0.33 0.01 -0.35 0.05 -0.31 0.03 -0.3 0.06 -0.27 0.09 -0.27 0.09 -0.23 0.07 0.13 0.05 0.23 0.08 0.13 0.05 0.16 0.1 0.14 0.11 0.13 0.08 0.13 0.05 0.11 0.12 -0.17 -0.47 0.14 0.11 0.18 0.07 0.19 0.13 0.15 0.17 0.17 0.19 0.15 0.17 0.14 0.11 0.11 0.12 -0.08 -0.22 -0.1 -0.34 -0.05 -0.29 -0.04 -0.23 0.15 0.35 0.15 0.2 0.1 0.18 0.1 0.18 0.12 0.15 0.09 0.13 0.14 0.11 0.15 0.17 0.72 0.3 -0.11 -0.58 0.33 0.6 0.31 0.12 0.29 0.16 0.37 0.1 0.36 0.13 0.33 0.14 0.31 0.18 0.25 0.08 0.21 0.09 -0.03 0.1 -0 0.15 -0.02 0.16 -0.08 0.27 -0.23 0.04 -0.24 0.01 -0.3 0.09 -0.26 0.14 -0.3 0.09 -0.31 0.19 -0.28 0.18 -0.3 0.25 -0.27 0.24 -0.28 0.21 -0.3 0.25 -0.23 0.23 -0.25 0.26 -0.27 0.3 -0.18 0.21 -0.21 0.22 -0.11 0.19 -0.14 0.2 -0.14 0.2 -0.09 0.18 -0.11 0.19 -0.08 0.12 -0.05 0.17 -0.05 0.17 0.05 -0.11 0.16 -0.05 0.11 -0.09 0.14 -0.04 0.12 0.02 0.12 0.02 0.1 0 0.11 -0.04 -0.08 0.24 -0.13 0.26 -0.09 0.21 -0.04 0.07 0.4 -0.34 0.05 -0.11 0.05 -0.17 0.1 -0.12 0.09 -0.18 0.07 -0.15 0.11 -0.22 0.14 -0.17 0.16 -0.2 -0.05 0.17 -0.09 0.18 -0.02 0.16 -0 0.15 0.5 -0.31 0.09 -0.21 0.08 -0.24 0.15 -0.14 0.1 -0.15 0.11 -0.19 0.15 -0.14 0.16 -0.2 0.18 -0.21 -0.06 0.23 -0.1 0.28 -0.05 0.32 0.01 0.21 0.17 -0.12 0.16 -0.05 0.18 -0.06 0.23 -0.07 0.21 -0.01 0.24 0.02 0.2 0.03 0.24 -0.01 0.14 0.11 0.02 0.15 0.03 0.21 0.04 0.23 0.6 0.03 -0.12 0.28 -0.03 0.26 -0.04 0.23 0.01 0.06 0.59 -0.49 -0.23 0.53 -0.19 0.61 -0.22 0.62 -0.19 0.64 -0.18 0.67 -0.16 0.69 -0.13 0.72 -0.17 0.76 -0.06 0.39 -0.03 0.41 -0.08 0.39 -0.05 0.42 -0.06 0.39 -0.06 0.39 -0.04 0.38 -0.08 0.42 -0.16 1.59 -0.16 1.59 -0.14 1.58 -0.03 0.34 1.19 -1.35z"/>
       </clipPath>
        <clipPath id="id6" style="clip-rule:nonzero">
         <path d="M132.32 57.99c-15.58,-10.81 -63.77,12.32 -82.69,-1.91 28.31,39.3 61.23,-6.99 82.69,1.91z"/>
        </clipPath>
        <clipPath id="id7" style="clip-rule:nonzero">
         <path d="M132.32 57.99c-15.58,-10.81 -63.77,12.32 -82.69,-1.91 27.59,34.77 61.23,-6.99 82.69,1.91z"/>
        </clipPath>
       <clipPath id="id8" style="clip-rule:nonzero">
        <path d="M132.49 54.8c-15.97,-13.37 -69.34,6.51 -91.25,-9.43 19.57,27.52 67.51,0.82 91.25,9.43z"/>
       </clipPath>
       <clipPath id="id9" style="clip-rule:nonzero">
        <path d="M61.38 43.17l2.91 0 0 2.91 -2.91 0 0 -2.91zm40.35 7.34l17.06 0 -19.1 -24.07 -14.17 0 -2.89 0 -0.03 0 -4.79 6.04 -14.42 0 0 0 -0.06 0 -14.31 18.03 2.92 0 12.88 -16.23 15.19 19.14 14.48 -2.91 -14.04 -17.69 3.62 -4.57 17.66 22.25zm-33.01 -2.91l0 2.91 -2.91 0 0 -2.91 2.91 0zm-4.43 0l0 2.91 -2.91 0 0 -2.91 2.91 0zm1.53 -4.43l2.91 0 0 2.91 -2.91 0 0 -2.91z"/>
       </clipPath>
       <clipPath id="id10" style="clip-rule:nonzero">
        <path d="M132.49 54.8c-15.97,-13.76 -69.58,6.77 -91.49,-9.71 20.88,24.91 67.75,0.52 91.49,9.71z"/>
       </clipPath>
 </defs>
 <g id="Layer_x0020_1">
  <metadata id="CorelCorpID_0Corel-Layer"/>
  <g id="_2768502205872">
   <g>
    <g style="clip-path:url(#id0)">
     <polygon class="fil0" points="151.06,102.26 150.25,102.11 167.52,8.21 168.32,8.36 "/>
     <polygon id="_1" class="fil1" points="151.03,102.26 148.7,101.83 165.96,7.92 168.29,8.35 "/>
     <polygon id="_2" class="fil2" points="149.48,101.97 147.15,101.54 164.41,7.64 166.74,8.07 "/>
     <polygon id="_3" class="fil3" points="147.92,101.69 145.6,101.26 162.86,7.35 165.19,7.78 "/>
     <polygon id="_4" class="fil4" points="146.37,101.4 144.04,100.97 161.31,7.07 163.64,7.5 "/>
     <polygon id="_5" class="fil5" points="144.82,101.12 142.49,100.69 159.76,6.78 162.08,7.21 "/>
     <polygon id="_6" class="fil6" points="143.27,100.83 140.94,100.4 158.2,6.5 160.53,6.93 "/>
     <polygon id="_7" class="fil7" points="141.72,100.54 139.39,100.12 156.65,6.21 158.98,6.64 "/>
     <polygon id="_8" class="fil8" points="140.16,100.26 137.84,99.83 155.1,5.93 157.43,6.35 "/>
     <polygon id="_9" class="fil9" points="138.61,99.97 136.28,99.55 153.55,5.64 155.88,6.07 "/>
     <polygon id="_10" class="fil10" points="137.06,99.69 134.73,99.26 152,5.36 154.32,5.78 "/>
     <polygon id="_11" class="fil11" points="135.51,99.4 133.18,98.98 150.44,5.07 152.77,5.5 "/>
     <polygon id="_12" class="fil12" points="133.96,99.12 131.63,98.69 148.89,4.79 151.22,5.21 "/>
     <polygon id="_13" class="fil13" points="132.4,98.83 130.07,98.4 147.34,4.5 149.67,4.93 "/>
     <polygon id="_14" class="fil14" points="130.85,98.55 128.52,98.12 145.79,4.21 148.12,4.64 "/>
     <polygon id="_15" class="fil15" points="129.3,98.26 126.97,97.83 144.23,3.93 146.56,4.36 "/>
     <polygon id="_16" class="fil16" points="127.75,97.98 125.42,97.55 142.68,3.64 145.01,4.07 "/>
     <polygon id="_17" class="fil17" points="126.19,97.69 123.87,97.26 141.13,3.36 143.46,3.79 "/>
     <polygon id="_18" class="fil18" points="124.64,97.41 122.31,96.98 139.58,3.07 141.91,3.5 "/>
     <polygon id="_19" class="fil19" points="123.09,97.12 120.76,96.69 138.03,2.79 140.35,3.22 "/>
     <polygon id="_20" class="fil20" points="121.54,96.83 119.21,96.41 136.47,2.5 138.8,2.93 "/>
     <polygon id="_21" class="fil21" points="119.99,96.55 117.66,96.12 134.92,2.22 137.25,2.65 "/>
     <polygon id="_22" class="fil22" points="118.43,96.26 116.11,95.84 133.37,1.93 135.7,2.36 "/>
     <polygon id="_23" class="fil23" points="116.88,95.98 114.55,95.55 131.82,1.65 134.15,2.07 "/>
     <polygon id="_24" class="fil24" points="115.33,95.69 113,95.27 130.27,1.36 132.59,1.79 "/>
     <polygon id="_25" class="fil25" points="113.78,95.41 111.45,94.98 128.71,1.08 131.04,1.5 "/>
     <polygon id="_26" class="fil26" points="112.23,95.12 109.9,94.69 127.16,0.79 129.49,1.22 "/>
     <polygon id="_27" class="fil27" points="110.67,94.84 108.35,94.41 125.61,0.5 127.94,0.93 "/>
     <polygon id="_28" class="fil28" points="109.12,94.55 106.79,94.12 124.06,0.22 126.39,0.65 "/>
     <polygon id="_29" class="fil29" points="107.57,94.27 105.24,93.84 122.51,-0.07 124.83,0.36 "/>
     <polygon id="_30" class="fil30" points="106.02,93.98 103.69,93.55 120.95,-0.35 123.28,0.08 "/>
     <polygon id="_31" class="fil31" points="104.46,93.7 102.14,93.27 119.4,-0.64 121.73,-0.21 "/>
     <polygon id="_32" class="fil32" points="102.91,93.41 100.58,92.98 117.85,-0.92 120.18,-0.49 "/>
     <polygon id="_33" class="fil33" points="101.36,93.13 99.03,92.7 116.3,-1.21 118.62,-0.78 "/>
     <polygon id="_34" class="fil34" points="99.81,92.84 97.48,92.41 114.74,-1.49 117.07,-1.06 "/>
     <polygon id="_35" class="fil35" points="98.26,92.55 95.93,92.13 113.19,-1.78 115.52,-1.35 "/>
     <polygon id="_36" class="fil36" points="96.7,92.27 94.38,91.84 111.64,-2.06 113.97,-1.64 "/>
     <polygon id="_37" class="fil37" points="95.15,91.98 92.82,91.56 110.09,-2.35 112.42,-1.92 "/>
     <polygon id="_38" class="fil38" points="93.6,91.7 91.27,91.27 108.54,-2.63 110.86,-2.21 "/>
     <polygon id="_39" class="fil39" points="92.05,91.41 89.72,90.99 106.98,-2.92 109.31,-2.49 "/>
     <polygon id="_40" class="fil40" points="90.5,91.13 88.17,90.7 105.43,-3.2 107.76,-2.78 "/>
     <polygon id="_41" class="fil41" points="88.94,90.84 86.62,90.41 103.88,-3.49 106.21,-3.06 "/>
     <polygon id="_42" class="fil42" points="87.39,90.56 85.06,90.13 102.33,-3.78 104.66,-3.35 "/>
     <polygon id="_43" class="fil43" points="85.84,90.27 83.51,89.84 100.78,-4.06 103.1,-3.63 "/>
     <polygon id="_44" class="fil43" points="84.29,89.99 81.96,89.56 99.22,-4.35 101.55,-3.92 "/>
     <polygon id="_45" class="fil43" points="82.74,89.7 80.41,89.27 97.67,-4.63 100,-4.2 "/>
     <polygon id="_46" class="fil43" points="81.18,89.42 78.86,88.99 96.12,-4.92 98.45,-4.49 "/>
     <polygon id="_47" class="fil43" points="79.63,89.13 77.3,88.7 94.57,-5.2 96.9,-4.77 "/>
     <polygon id="_48" class="fil43" points="78.08,88.84 75.75,88.42 93.02,-5.49 95.34,-5.06 "/>
     <polygon id="_49" class="fil43" points="76.53,88.56 74.2,88.13 91.46,-5.77 93.79,-5.34 "/>
     <polygon id="_50" class="fil43" points="74.97,88.27 72.65,87.85 89.91,-6.06 92.24,-5.63 "/>
     <polygon id="_51" class="fil43" points="73.42,87.99 71.09,87.56 88.36,-6.34 90.69,-5.92 "/>
     <polygon id="_52" class="fil43" points="71.87,87.7 69.54,87.28 86.81,-6.63 89.13,-6.2 "/>
     <polygon id="_53" class="fil43" points="70.32,87.42 67.99,86.99 85.25,-6.91 87.58,-6.49 "/>
     <polygon id="_54" class="fil43" points="68.77,87.13 66.44,86.7 83.7,-7.2 86.03,-6.77 "/>
     <polygon id="_55" class="fil43" points="67.21,86.85 64.89,86.42 82.15,-7.49 84.48,-7.06 "/>
     <polygon id="_56" class="fil43" points="65.66,86.56 63.33,86.13 80.6,-7.77 82.93,-7.34 "/>
     <polygon id="_57" class="fil43" points="64.11,86.28 61.78,85.85 79.05,-8.06 81.37,-7.63 "/>
     <polygon id="_58" class="fil43" points="62.56,85.99 60.23,85.56 77.49,-8.34 79.82,-7.91 "/>
     <polygon id="_59" class="fil43" points="61.01,85.71 58.68,85.28 75.94,-8.63 78.27,-8.2 "/>
     <polygon id="_60" class="fil43" points="59.45,85.42 57.13,84.99 74.39,-8.91 76.72,-8.48 "/>
     <polygon id="_61" class="fil43" points="57.9,85.14 55.57,84.71 72.84,-9.2 75.17,-8.77 "/>
     <polygon id="_62" class="fil43" points="56.35,84.85 54.02,84.42 71.29,-9.48 73.61,-9.05 "/>
     <polygon id="_63" class="fil43" points="54.8,84.56 52.47,84.14 69.73,-9.77 72.06,-9.34 "/>
     <polygon id="_64" class="fil43" points="53.24,84.28 50.92,83.85 68.18,-10.05 70.51,-9.63 "/>
     <polygon id="_65" class="fil43" points="51.69,83.99 49.36,83.57 66.63,-10.34 68.96,-9.91 "/>
     <polygon id="_66" class="fil42" points="50.14,83.71 47.81,83.28 65.08,-10.62 67.41,-10.2 "/>
     <polygon id="_67" class="fil44" points="48.59,83.42 46.26,83 63.52,-10.91 65.85,-10.48 "/>
     <polygon id="_68" class="fil45" points="47.04,83.14 44.71,82.71 61.97,-11.19 64.3,-10.77 "/>
     <polygon id="_69" class="fil46" points="45.48,82.85 43.16,82.42 60.42,-11.48 62.75,-11.05 "/>
     <polygon id="_70" class="fil47" points="43.93,82.57 41.6,82.14 58.87,-11.77 61.2,-11.34 "/>
     <polygon id="_71" class="fil48" points="42.38,82.28 40.05,81.85 57.32,-12.05 59.64,-11.62 "/>
     <polygon id="_72" class="fil49" points="40.83,82 38.5,81.57 55.76,-12.34 58.09,-11.91 "/>
     <polygon id="_73" class="fil50" points="39.28,81.71 36.95,81.28 54.21,-12.62 56.54,-12.19 "/>
     <polygon id="_74" class="fil51" points="37.72,81.43 35.4,81 52.66,-12.91 54.99,-12.48 "/>
     <polygon id="_75" class="fil52" points="36.17,81.14 33.84,80.71 51.11,-13.19 53.44,-12.76 "/>
     <polygon id="_76" class="fil53" points="34.62,80.85 32.29,80.43 49.56,-13.48 51.88,-13.05 "/>
     <polygon id="_77" class="fil54" points="33.07,80.57 30.74,80.14 48,-13.76 50.33,-13.33 "/>
     <polygon id="_78" class="fil55" points="31.52,80.28 29.19,79.86 46.45,-14.05 48.78,-13.62 "/>
     <polygon id="_79" class="fil56" points="29.96,80 27.63,79.57 44.9,-14.33 47.23,-13.91 "/>
     <polygon id="_80" class="fil57" points="28.41,79.71 26.08,79.29 43.35,-14.62 45.68,-14.19 "/>
     <polygon id="_81" class="fil58" points="26.86,79.43 24.53,79 41.8,-14.9 44.12,-14.48 "/>
     <polygon id="_82" class="fil59" points="25.31,79.14 22.98,78.71 40.24,-15.19 42.57,-14.76 "/>
     <polygon id="_83" class="fil60" points="23.75,78.86 21.43,78.43 38.69,-15.48 41.02,-15.05 "/>
     <polygon id="_84" class="fil61" points="22.2,78.57 19.87,78.14 37.14,-15.76 39.47,-15.33 "/>
     <polygon id="_85" class="fil62" points="20.65,78.29 18.32,77.86 35.59,-16.05 37.91,-15.62 "/>
     <polygon id="_86" class="fil63" points="19.1,78 16.77,77.57 34.03,-16.33 36.36,-15.9 "/>
     <polygon id="_87" class="fil64" points="17.55,77.72 15.22,77.29 32.48,-16.62 34.81,-16.19 "/>
     <polygon id="_88" class="fil65" points="15.99,77.43 13.67,77 30.93,-16.9 33.26,-16.47 "/>
     <polygon id="_89" class="fil66" points="14.44,77.15 12.11,76.72 29.38,-17.19 31.71,-16.76 "/>
     <polygon id="_90" class="fil67" points="12.89,76.86 10.56,76.43 27.83,-17.47 30.15,-17.04 "/>
     <polygon id="_91" class="fil68" points="11.34,76.57 9.01,76.15 26.27,-17.76 28.6,-17.33 "/>
     <polygon id="_92" class="fil69" points="9.79,76.29 7.46,75.86 24.72,-18.04 27.05,-17.62 "/>
     <polygon id="_93" class="fil70" points="8.23,76 5.91,75.58 23.17,-18.33 25.5,-17.9 "/>
     <polygon id="_94" class="fil71" points="6.68,75.72 4.35,75.29 21.62,-18.61 23.95,-18.19 "/>
     <polygon id="_95" class="fil72" points="5.13,75.43 2.8,75.01 20.07,-18.9 22.39,-18.47 "/>
     <polygon id="_96" class="fil73" points="3.58,75.15 1.25,74.72 18.51,-19.18 20.84,-18.76 "/>
     <polygon id="_97" class="fil74" points="2.02,74.86 -0.3,74.43 16.96,-19.47 19.29,-19.04 "/>
     <polygon id="_98" class="fil75" points="0.47,74.58 -1.86,74.15 15.41,-19.76 17.74,-19.33 "/>
     <polygon id="_99" class="fil76" points="-1.08,74.29 -3.41,73.86 13.86,-20.04 16.18,-19.61 "/>
     <polygon id="_100" class="fil77" points="-2.63,74.01 -4.96,73.58 12.3,-20.33 14.63,-19.9 "/>
     <polygon id="_101" class="fil78" points="-4.18,73.72 -6.51,73.29 10.75,-20.61 13.08,-20.18 "/>
     <polygon id="_102" class="fil79" points="-5.74,73.44 -8.06,73.01 9.2,-20.9 11.53,-20.47 "/>
     <polygon id="_103" class="fil80" points="-7.29,73.15 -9.62,72.72 7.65,-21.18 9.98,-20.75 "/>
     <polygon id="_104" class="fil81" points="-8.84,72.86 -11.17,72.44 6.1,-21.47 8.42,-21.04 "/>
     <polygon id="_105" class="fil82" points="-10.39,72.58 -10.02,72.65 7.24,-21.26 6.87,-21.32 "/>
    </g>
   </g>
   <path class="fil83" d="M79.15 2.38c40,0 72.42,17.07 72.42,38.13 0,21.06 -32.42,38.13 -72.42,38.13 -40,0 -72.42,-17.07 -72.42,-38.13 0,-21.06 32.42,-38.13 72.42,-38.13z"/>
   <g style="clip-path:url(#id1)">
    <g id="_2768502178032">
     <path id="_1_0" class="fil84" style="mask:url(#id2)" d="M-34.05 1.85c24.65,32.54 144.25,83.48 229.11,-4.42 35.6,-36.88 93.26,28.32 36.77,59.18 -56.5,30.87 -154.23,37.92 -194.74,32.39 -40.51,-5.53 -64.73,-31.48 -67.61,-39.34 -2.88,-7.87 -3.53,-47.81 -3.53,-47.81z"/>
    </g>
   </g>
   <path class="fil85" d="M79.15 2.38c40,0 72.42,17.07 72.42,38.13 0,21.06 -32.42,38.13 -72.42,38.13 -40,0 -72.42,-17.07 -72.42,-38.13 0,-21.06 32.42,-38.13 72.42,-38.13z"/>
   <g id="_2768502160896">
    <g>
     <g>
      <g style="clip-path:url(#id4)">
       <polygon class="fil43" points="36.23,18.57 36.54,18.34 55.02,43.1 54.71,43.33 "/>
       <polygon id="_1_1" class="fil43" points="36.4,18.44 36.81,18.14 55.29,42.9 54.89,43.2 "/>
       <polygon id="_2_2" class="fil43" points="36.68,18.24 37.09,17.94 55.57,42.69 55.16,43 "/>
       <polygon id="_3_3" class="fil43" points="36.95,18.04 37.36,17.73 55.84,42.49 55.43,42.79 "/>
       <polygon id="_4_4" class="fil43" points="37.22,17.83 37.63,17.53 56.11,42.29 55.7,42.59 "/>
       <polygon id="_5_5" class="fil43" points="37.49,17.63 37.9,17.32 56.38,42.08 55.98,42.39 "/>
       <polygon id="_6_6" class="fil43" points="37.77,17.43 38.18,17.12 56.66,41.88 56.25,42.18 "/>
       <polygon id="_7_7" class="fil43" points="38.04,17.22 38.45,16.92 56.93,41.67 56.52,41.98 "/>
       <polygon id="_8_8" class="fil43" points="38.31,17.02 38.72,16.71 57.2,41.47 56.79,41.78 "/>
       <polygon id="_9_9" class="fil43" points="38.59,16.82 38.99,16.51 57.48,41.27 57.07,41.57 "/>
       <polygon id="_10_10" class="fil43" points="38.86,16.61 39.27,16.31 57.75,41.06 57.34,41.37 "/>
       <polygon id="_11_11" class="fil43" points="39.13,16.41 39.54,16.1 58.02,40.86 57.61,41.17 "/>
       <polygon id="_12_12" class="fil43" points="39.4,16.21 39.81,15.9 58.29,40.66 57.88,40.96 "/>
       <polygon id="_13_13" class="fil43" points="39.68,16 40.09,15.7 58.57,40.45 58.16,40.76 "/>
       <polygon id="_14_14" class="fil43" points="39.95,15.8 40.36,15.49 58.84,40.25 58.43,40.55 "/>
       <polygon id="_15_15" class="fil43" points="40.22,15.59 40.63,15.29 59.11,40.05 58.7,40.35 "/>
       <polygon id="_16_16" class="fil42" points="40.49,15.39 40.9,15.09 59.38,39.84 58.98,40.15 "/>
       <polygon id="_17_17" class="fil44" points="40.77,15.19 41.18,14.88 59.66,39.64 59.25,39.94 "/>
       <polygon id="_18_18" class="fil45" points="41.04,14.98 41.45,14.68 59.93,39.43 59.52,39.74 "/>
       <polygon id="_19_19" class="fil46" points="41.31,14.78 41.72,14.47 60.2,39.23 59.79,39.54 "/>
       <polygon id="_20_20" class="fil47" points="41.58,14.58 41.99,14.27 60.48,39.03 60.07,39.33 "/>
       <polygon id="_21_21" class="fil48" points="41.86,14.37 42.27,14.07 60.75,38.82 60.34,39.13 "/>
       <polygon id="_22_22" class="fil49" points="42.13,14.17 42.54,13.86 61.02,38.62 60.61,38.93 "/>
       <polygon id="_23_23" class="fil50" points="42.4,13.97 42.81,13.66 61.29,38.42 60.88,38.72 "/>
       <polygon id="_24_24" class="fil51" points="42.68,13.76 43.08,13.46 61.57,38.21 61.16,38.52 "/>
       <polygon id="_25_25" class="fil52" points="42.95,13.56 43.36,13.25 61.84,38.01 61.43,38.32 "/>
       <polygon id="_26_26" class="fil53" points="43.22,13.36 43.63,13.05 62.11,37.81 61.7,38.11 "/>
       <polygon id="_27_27" class="fil54" points="43.49,13.15 43.9,12.85 62.38,37.6 61.98,37.91 "/>
       <polygon id="_28_28" class="fil55" points="43.77,12.95 44.18,12.64 62.66,37.4 62.25,37.7 "/>
       <polygon id="_29_29" class="fil56" points="44.04,12.74 44.45,12.44 62.93,37.2 62.52,37.5 "/>
       <polygon id="_30_30" class="fil57" points="44.31,12.54 44.72,12.24 63.2,36.99 62.79,37.3 "/>
       <polygon id="_31_31" class="fil58" points="44.58,12.34 44.99,12.03 63.47,36.79 63.07,37.09 "/>
       <polygon id="_32_32" class="fil59" points="44.86,12.13 45.27,11.83 63.75,36.59 63.34,36.89 "/>
       <polygon id="_33_33" class="fil60" points="45.13,11.93 45.54,11.62 64.02,36.38 63.61,36.69 "/>
       <polygon id="_34_34" class="fil61" points="45.4,11.73 45.81,11.42 64.29,36.18 63.88,36.48 "/>
       <polygon id="_35_35" class="fil62" points="45.68,11.52 46.08,11.22 64.57,35.97 64.16,36.28 "/>
       <polygon id="_36_36" class="fil63" points="45.95,11.32 46.36,11.01 64.84,35.77 64.43,36.08 "/>
       <polygon id="_37_37" class="fil64" points="46.22,11.12 46.63,10.81 65.11,35.57 64.7,35.87 "/>
       <polygon id="_38_38" class="fil65" points="46.49,10.91 46.9,10.61 65.38,35.36 64.97,35.67 "/>
       <polygon id="_39_39" class="fil66" points="46.77,10.71 47.18,10.4 65.66,35.16 65.25,35.47 "/>
       <polygon id="_40_40" class="fil67" points="47.04,10.5 47.45,10.2 65.93,34.96 65.52,35.26 "/>
       <polygon id="_41_41" class="fil68" points="47.31,10.3 47.72,10 66.2,34.75 65.79,35.06 "/>
       <polygon id="_42_42" class="fil69" points="47.58,10.1 47.99,9.79 66.47,34.55 66.07,34.85 "/>
       <polygon id="_43_43" class="fil70" points="47.86,9.89 48.27,9.59 66.75,34.35 66.34,34.65 "/>
       <polygon id="_44_44" class="fil71" points="48.13,9.69 48.54,9.39 67.02,34.14 66.61,34.45 "/>
       <polygon id="_45_45" class="fil72" points="48.4,9.49 48.81,9.18 67.29,33.94 66.88,34.24 "/>
       <polygon id="_46_46" class="fil73" points="48.67,9.28 49.08,8.98 67.57,33.74 67.16,34.04 "/>
       <polygon id="_47_47" class="fil74" points="48.95,9.08 49.36,8.77 67.84,33.53 67.43,33.84 "/>
       <polygon id="_48_48" class="fil75" points="49.22,8.88 49.63,8.57 68.11,33.33 67.7,33.63 "/>
       <polygon id="_49_49" class="fil76" points="49.49,8.67 49.9,8.37 68.38,33.12 67.97,33.43 "/>
       <polygon id="_50_50" class="fil77" points="49.77,8.47 50.17,8.16 68.66,32.92 68.25,33.23 "/>
       <polygon id="_51_51" class="fil78" points="50.04,8.27 50.45,7.96 68.93,32.72 68.52,33.02 "/>
       <polygon id="_52_52" class="fil79" points="50.31,8.06 50.72,7.76 69.2,32.51 68.79,32.82 "/>
       <polygon id="_53_53" class="fil80" points="50.58,7.86 50.99,7.55 69.47,32.31 69.07,32.62 "/>
       <polygon id="_54_54" class="fil81" points="50.86,7.65 51.27,7.35 69.75,32.11 69.34,32.41 "/>
       <polygon id="_55_55" class="fil82" points="51.13,7.45 51.54,7.15 70.02,31.9 69.61,32.21 "/>
       <polygon id="_56_56" class="fil86" points="51.4,7.25 51.81,6.94 70.29,31.7 69.88,32 "/>
       <polygon id="_57_57" class="fil87" points="51.67,7.04 52.08,6.74 70.57,31.5 70.16,31.8 "/>
       <polygon id="_58_58" class="fil88" points="51.95,6.84 52.36,6.54 70.84,31.29 70.43,31.6 "/>
       <polygon id="_59_59" class="fil89" points="52.22,6.64 52.63,6.33 71.11,31.09 70.7,31.39 "/>
       <polygon id="_60_60" class="fil90" points="52.49,6.43 52.9,6.13 71.38,30.88 70.97,31.19 "/>
       <polygon id="_61_61" class="fil91" points="52.77,6.23 53.17,5.92 71.66,30.68 71.25,30.99 "/>
       <polygon id="_62_62" class="fil92" points="53.04,6.03 52.79,6.21 71.27,30.97 71.52,30.78 "/>
      </g>
     </g>
     <g>
      <g style="clip-path:url(#id5)">
       <polygon class="fil39" points="61.85,55.23 61.47,55.1 75.65,15.12 76.03,15.26 "/>
       <polygon id="_1_63" class="fil40" points="61.62,55.15 61.16,54.99 75.34,15.02 75.8,15.18 "/>
       <polygon id="_2_64" class="fil41" points="61.32,55.04 60.86,54.88 75.04,14.91 75.5,15.07 "/>
       <polygon id="_3_65" class="fil42" points="61.01,54.94 60.56,54.77 74.74,14.8 75.19,14.96 "/>
       <polygon id="_4_66" class="fil43" points="60.71,54.83 60.25,54.67 74.43,14.69 74.89,14.85 "/>
       <polygon id="_5_67" class="fil43" points="60.4,54.72 59.95,54.56 74.13,14.58 74.58,14.75 "/>
       <polygon id="_6_68" class="fil43" points="60.1,54.61 59.65,54.45 73.82,14.48 74.28,14.64 "/>
       <polygon id="_7_69" class="fil43" points="59.8,54.5 59.34,54.34 73.52,14.37 73.98,14.53 "/>
       <polygon id="_8_70" class="fil43" points="59.49,54.4 59.04,54.24 73.22,14.26 73.67,14.42 "/>
       <polygon id="_9_71" class="fil43" points="59.19,54.29 58.73,54.13 72.91,14.15 73.37,14.31 "/>
       <polygon id="_10_72" class="fil43" points="58.89,54.18 58.43,54.02 72.61,14.05 73.07,14.21 "/>
       <polygon id="_11_73" class="fil43" points="58.58,54.07 58.13,53.91 72.31,13.94 72.76,14.1 "/>
       <polygon id="_12_74" class="fil43" points="58.28,53.97 57.82,53.8 72,13.83 72.46,13.99 "/>
       <polygon id="_13_75" class="fil43" points="57.97,53.86 57.52,53.7 71.7,13.72 72.15,13.88 "/>
       <polygon id="_14_76" class="fil43" points="57.67,53.75 57.21,53.59 71.39,13.61 71.85,13.78 "/>
       <polygon id="_15_77" class="fil43" points="57.37,53.64 56.91,53.48 71.09,13.51 71.55,13.67 "/>
       <polygon id="_16_78" class="fil43" points="57.06,53.53 56.61,53.37 70.79,13.4 71.24,13.56 "/>
       <polygon id="_17_79" class="fil43" points="56.76,53.43 56.3,53.27 70.48,13.29 70.94,13.45 "/>
       <polygon id="_18_80" class="fil43" points="56.45,53.32 56,53.16 70.18,13.18 70.63,13.34 "/>
       <polygon id="_19_81" class="fil43" points="56.15,53.21 55.69,53.05 69.87,13.08 70.33,13.24 "/>
       <polygon id="_20_82" class="fil43" points="55.85,53.1 55.39,52.94 69.57,12.97 70.03,13.13 "/>
       <polygon id="_21_83" class="fil43" points="55.54,53 55.09,52.83 69.27,12.86 69.72,13.02 "/>
       <polygon id="_22_84" class="fil43" points="55.24,52.89 54.78,52.73 68.96,12.75 69.42,12.91 "/>
       <polygon id="_23_85" class="fil43" points="54.94,52.78 54.48,52.62 68.66,12.64 69.11,12.81 "/>
       <polygon id="_24_86" class="fil43" points="54.63,52.67 54.18,52.51 68.36,12.54 68.81,12.7 "/>
       <polygon id="_25_87" class="fil43" points="54.33,52.56 53.87,52.4 68.05,12.43 68.51,12.59 "/>
       <polygon id="_26_88" class="fil43" points="54.02,52.46 53.57,52.3 67.75,12.32 68.2,12.48 "/>
       <polygon id="_27_89" class="fil42" points="53.72,52.35 53.26,52.19 67.44,12.21 67.9,12.37 "/>
       <polygon id="_28_90" class="fil44" points="53.42,52.24 52.96,52.08 67.14,12.1 67.6,12.27 "/>
       <polygon id="_29_91" class="fil45" points="53.11,52.13 52.66,51.97 66.84,12 67.29,12.16 "/>
       <polygon id="_30_92" class="fil46" points="52.81,52.03 52.35,51.86 66.53,11.89 66.99,12.05 "/>
       <polygon id="_31_93" class="fil47" points="52.5,51.92 52.05,51.76 66.23,11.78 66.68,11.94 "/>
       <polygon id="_32_94" class="fil48" points="52.2,51.81 51.74,51.65 65.92,11.67 66.38,11.84 "/>
       <polygon id="_33_95" class="fil49" points="51.9,51.7 51.44,51.54 65.62,11.57 66.08,11.73 "/>
       <polygon id="_34_96" class="fil50" points="51.59,51.59 51.14,51.43 65.32,11.46 65.77,11.62 "/>
       <polygon id="_35_97" class="fil51" points="51.29,51.49 50.83,51.33 65.01,11.35 65.47,11.51 "/>
       <polygon id="_36_98" class="fil52" points="50.99,51.38 50.53,51.22 64.71,11.24 65.16,11.4 "/>
       <polygon id="_37_99" class="fil53" points="50.68,51.27 50.23,51.11 64.41,11.13 64.86,11.3 "/>
       <polygon id="_38_100" class="fil54" points="50.38,51.16 49.92,51 64.1,11.03 64.56,11.19 "/>
       <polygon id="_39_101" class="fil55" points="50.07,51.06 49.62,50.89 63.8,10.92 64.25,11.08 "/>
       <polygon id="_40_102" class="fil56" points="49.77,50.95 49.31,50.79 63.49,10.81 63.95,10.97 "/>
       <polygon id="_41_103" class="fil57" points="49.47,50.84 49.01,50.68 63.19,10.7 63.65,10.87 "/>
       <polygon id="_42_104" class="fil58" points="49.16,50.73 48.71,50.57 62.89,10.6 63.34,10.76 "/>
       <polygon id="_43_105" class="fil59" points="48.86,50.62 48.4,50.46 62.58,10.49 63.04,10.65 "/>
       <polygon id="_44_106" class="fil60" points="48.55,50.52 48.1,50.36 62.28,10.38 62.73,10.54 "/>
       <polygon id="_45_107" class="fil61" points="48.25,50.41 47.79,50.25 61.97,10.27 62.43,10.43 "/>
       <polygon id="_46_108" class="fil62" points="47.95,50.3 47.49,50.14 61.67,10.16 62.13,10.33 "/>
       <polygon id="_47_109" class="fil63" points="47.64,50.19 47.19,50.03 61.37,10.06 61.82,10.22 "/>
       <polygon id="_48_110" class="fil64" points="47.34,50.09 46.88,49.92 61.06,9.95 61.52,10.11 "/>
       <polygon id="_49_111" class="fil65" points="47.03,49.98 46.58,49.82 60.76,9.84 61.21,10 "/>
       <polygon id="_50_112" class="fil66" points="46.73,49.87 46.28,49.71 60.45,9.73 60.91,9.9 "/>
       <polygon id="_51_113" class="fil67" points="46.43,49.76 45.97,49.6 60.15,9.63 60.61,9.79 "/>
       <polygon id="_52_114" class="fil68" points="46.12,49.65 45.67,49.49 59.85,9.52 60.3,9.68 "/>
       <polygon id="_53_115" class="fil69" points="45.82,49.55 45.36,49.39 59.54,9.41 60,9.57 "/>
       <polygon id="_54_116" class="fil70" points="45.52,49.44 45.06,49.28 59.24,9.3 59.7,9.46 "/>
       <polygon id="_55_117" class="fil71" points="45.21,49.33 44.76,49.17 58.94,9.19 59.39,9.36 "/>
       <polygon id="_56_118" class="fil72" points="44.91,49.22 44.45,49.06 58.63,9.09 59.09,9.25 "/>
       <polygon id="_57_119" class="fil73" points="44.6,49.12 44.15,48.95 58.33,8.98 58.78,9.14 "/>
       <polygon id="_58_120" class="fil74" points="44.3,49.01 43.84,48.85 58.02,8.87 58.48,9.03 "/>
       <polygon id="_59_121" class="fil75" points="44,48.9 43.54,48.74 57.72,8.76 58.18,8.93 "/>
       <polygon id="_60_122" class="fil76" points="43.69,48.79 43.24,48.63 57.42,8.66 57.87,8.82 "/>
       <polygon id="_61_123" class="fil77" points="43.39,48.68 43.6,48.76 57.78,8.79 57.57,8.71 "/>
      </g>
     </g>
    </g>
    <g>
     <g id="_2768502167568">
      <g>
       <g style="clip-path:url(#id6)">
        <polygon class="fil93" points="49.34,51.31 50.49,51.24 53.28,96.9 52.13,96.97 "/>
        <polygon id="_1_124" class="fil1" points="49.82,51.28 51.83,51.16 54.62,96.82 52.61,96.94 "/>
        <polygon id="_2_125" class="fil94" points="51.16,51.2 53.17,51.07 55.96,96.74 53.95,96.86 "/>
        <polygon id="_3_126" class="fil95" points="52.5,51.11 54.51,50.99 57.3,96.65 55.29,96.78 "/>
        <polygon id="_4_127" class="fil96" points="53.84,51.03 55.85,50.91 58.64,96.57 56.63,96.69 "/>
        <polygon id="_5_128" class="fil97" points="55.18,50.95 57.19,50.83 59.98,96.49 57.97,96.61 "/>
        <polygon id="_6_129" class="fil98" points="56.52,50.87 58.53,50.75 61.33,96.41 59.31,96.53 "/>
        <polygon id="_7_130" class="fil99" points="57.86,50.79 59.87,50.66 62.67,96.33 60.66,96.45 "/>
        <polygon id="_8_131" class="fil97" points="59.2,50.7 61.21,50.58 64.01,96.24 62,96.37 "/>
        <polygon id="_9_132" class="fil100" points="60.54,50.62 62.55,50.5 65.35,96.16 63.34,96.28 "/>
        <polygon id="_10_133" class="fil0" points="61.88,50.54 63.89,50.42 66.69,96.08 64.68,96.2 "/>
        <polygon id="_11_134" class="fil1" points="63.22,50.46 65.23,50.34 68.03,96 66.02,96.12 "/>
        <polygon id="_12_135" class="fil2" points="64.56,50.38 66.58,50.25 69.37,95.91 67.36,96.04 "/>
        <polygon id="_13_136" class="fil3" points="65.9,50.29 67.92,50.17 70.71,95.83 68.7,95.96 "/>
        <polygon id="_14_137" class="fil4" points="67.25,50.21 69.26,50.09 72.05,95.75 70.04,95.87 "/>
        <polygon id="_15_138" class="fil5" points="68.59,50.13 70.6,50.01 73.39,95.67 71.38,95.79 "/>
        <polygon id="_16_139" class="fil6" points="69.93,50.05 71.94,49.93 74.73,95.59 72.72,95.71 "/>
        <polygon id="_17_140" class="fil7" points="71.27,49.97 73.28,49.84 76.07,95.5 74.06,95.63 "/>
        <polygon id="_18_141" class="fil8" points="72.61,49.88 74.62,49.76 77.41,95.42 75.4,95.55 "/>
        <polygon id="_19_142" class="fil9" points="73.95,49.8 75.96,49.68 78.75,95.34 76.74,95.46 "/>
        <polygon id="_20_143" class="fil10" points="75.29,49.72 77.3,49.6 80.09,95.26 78.08,95.38 "/>
        <polygon id="_21_144" class="fil11" points="76.63,49.64 78.64,49.52 81.44,95.18 79.42,95.3 "/>
        <polygon id="_22_145" class="fil12" points="77.97,49.56 79.98,49.43 82.78,95.09 80.77,95.22 "/>
        <polygon id="_23_146" class="fil13" points="79.31,49.47 81.32,49.35 84.12,95.01 82.11,95.14 "/>
        <polygon id="_24_147" class="fil14" points="80.65,49.39 82.66,49.27 85.46,94.93 83.45,95.05 "/>
        <polygon id="_25_148" class="fil15" points="81.99,49.31 84,49.19 86.8,94.85 84.79,94.97 "/>
        <polygon id="_26_149" class="fil16" points="83.33,49.23 85.34,49.11 88.14,94.77 86.13,94.89 "/>
        <polygon id="_27_150" class="fil17" points="84.67,49.15 86.69,49.02 89.48,94.68 87.47,94.81 "/>
        <polygon id="_28_151" class="fil18" points="86.02,49.06 88.03,48.94 90.82,94.6 88.81,94.73 "/>
        <polygon id="_29_152" class="fil19" points="87.36,48.98 89.37,48.86 92.16,94.52 90.15,94.64 "/>
        <polygon id="_30_153" class="fil20" points="88.7,48.9 90.71,48.78 93.5,94.44 91.49,94.56 "/>
        <polygon id="_31_154" class="fil21" points="90.04,48.82 92.05,48.69 94.84,94.36 92.83,94.48 "/>
        <polygon id="_32_155" class="fil22" points="91.38,48.74 93.39,48.61 96.18,94.27 94.17,94.4 "/>
        <polygon id="_33_156" class="fil23" points="92.72,48.65 94.73,48.53 97.52,94.19 95.51,94.31 "/>
        <polygon id="_34_157" class="fil24" points="94.06,48.57 96.07,48.45 98.86,94.11 96.85,94.23 "/>
        <polygon id="_35_158" class="fil25" points="95.4,48.49 97.41,48.37 100.21,94.03 98.19,94.15 "/>
        <polygon id="_36_159" class="fil26" points="96.74,48.41 98.75,48.28 101.55,93.95 99.53,94.07 "/>
        <polygon id="_37_160" class="fil27" points="98.08,48.33 100.09,48.2 102.89,93.86 100.88,93.99 "/>
        <polygon id="_38_161" class="fil28" points="99.42,48.24 101.43,48.12 104.23,93.78 102.22,93.9 "/>
        <polygon id="_39_162" class="fil29" points="100.76,48.16 102.77,48.04 105.57,93.7 103.56,93.82 "/>
        <polygon id="_40_163" class="fil30" points="102.1,48.08 104.11,47.96 106.91,93.62 104.9,93.74 "/>
        <polygon id="_41_164" class="fil31" points="103.44,48 105.46,47.87 108.25,93.54 106.24,93.66 "/>
        <polygon id="_42_165" class="fil32" points="104.78,47.92 106.8,47.79 109.59,93.45 107.58,93.58 "/>
        <polygon id="_43_166" class="fil33" points="106.13,47.83 108.14,47.71 110.93,93.37 108.92,93.49 "/>
        <polygon id="_44_167" class="fil34" points="107.47,47.75 109.48,47.63 112.27,93.29 110.26,93.41 "/>
        <polygon id="_45_168" class="fil35" points="108.81,47.67 110.82,47.55 113.61,93.21 111.6,93.33 "/>
        <polygon id="_46_169" class="fil36" points="110.15,47.59 112.16,47.46 114.95,93.13 112.94,93.25 "/>
        <polygon id="_47_170" class="fil37" points="111.49,47.51 113.5,47.38 116.29,93.04 114.28,93.17 "/>
        <polygon id="_48_171" class="fil38" points="112.83,47.42 114.84,47.3 117.63,92.96 115.62,93.08 "/>
        <polygon id="_49_172" class="fil39" points="114.17,47.34 116.18,47.22 118.97,92.88 116.96,93 "/>
        <polygon id="_50_173" class="fil40" points="115.51,47.26 117.52,47.14 120.32,92.8 118.3,92.92 "/>
        <polygon id="_51_174" class="fil41" points="116.85,47.18 118.86,47.05 121.66,92.72 119.64,92.84 "/>
        <polygon id="_52_175" class="fil42" points="118.19,47.09 120.2,46.97 123,92.63 120.99,92.76 "/>
        <polygon id="_53_176" class="fil43" points="119.53,47.01 121.54,46.89 124.34,92.55 122.33,92.67 "/>
        <polygon id="_54_177" class="fil43" points="120.87,46.93 122.88,46.81 125.68,92.47 123.67,92.59 "/>
        <polygon id="_55_178" class="fil43" points="122.21,46.85 124.22,46.73 127.02,92.39 125.01,92.51 "/>
        <polygon id="_56_179" class="fil43" points="123.55,46.77 125.57,46.64 128.36,92.31 126.35,92.43 "/>
        <polygon id="_57_180" class="fil43" points="124.9,46.68 126.91,46.56 129.7,92.22 127.69,92.35 "/>
        <polygon id="_58_181" class="fil43" points="126.24,46.6 128.25,46.48 131.04,92.14 129.03,92.26 "/>
        <polygon id="_59_182" class="fil43" points="127.58,46.52 129.59,46.4 132.38,92.06 130.37,92.18 "/>
        <polygon id="_60_183" class="fil43" points="128.92,46.44 130.93,46.32 133.72,91.98 131.71,92.1 "/>
        <polygon id="_61_184" class="fil43" points="130.26,46.36 132.27,46.23 135.06,91.9 133.05,92.02 "/>
        <polygon id="_62_185" class="fil43" points="131.6,46.27 133.61,46.15 136.4,91.81 134.39,91.94 "/>
        <polygon id="_63_186" class="fil43" points="132.94,46.19 131.6,46.27 134.4,91.94 135.73,91.85 "/>
       </g>
      </g>
      <g>
       <g style="clip-path:url(#id7)">
        <polygon class="fil3" points="49.35,50.83 51.16,50.73 53.4,92.14 51.59,92.24 "/>
        <polygon id="_1_187" class="fil4" points="50.49,50.76 52.51,50.65 54.74,92.07 52.73,92.18 "/>
        <polygon id="_2_188" class="fil5" points="51.84,50.69 53.85,50.58 56.08,91.99 54.07,92.1 "/>
        <polygon id="_3_189" class="fil6" points="53.18,50.62 55.19,50.51 57.42,91.92 55.41,92.03 "/>
        <polygon id="_4_190" class="fil7" points="54.52,50.55 56.53,50.44 58.77,91.85 56.75,91.96 "/>
        <polygon id="_5_191" class="fil8" points="55.86,50.47 57.87,50.36 60.11,91.78 58.09,91.89 "/>
        <polygon id="_6_192" class="fil9" points="57.2,50.4 59.21,50.29 61.45,91.7 59.44,91.81 "/>
        <polygon id="_7_193" class="fil10" points="58.54,50.33 60.55,50.22 62.79,91.63 60.78,91.74 "/>
        <polygon id="_8_194" class="fil11" points="59.88,50.26 61.89,50.15 64.13,91.56 62.12,91.67 "/>
        <polygon id="_9_195" class="fil12" points="61.22,50.18 63.23,50.07 65.47,91.49 63.46,91.6 "/>
        <polygon id="_10_196" class="fil13" points="62.56,50.11 64.57,50 66.81,91.42 64.8,91.52 "/>
        <polygon id="_11_197" class="fil14" points="63.9,50.04 65.91,49.93 68.15,91.34 66.14,91.45 "/>
        <polygon id="_12_198" class="fil15" points="65.24,49.97 67.25,49.86 69.49,91.27 67.48,91.38 "/>
        <polygon id="_13_199" class="fil16" points="66.58,49.89 68.59,49.79 70.83,91.2 68.82,91.31 "/>
        <polygon id="_14_200" class="fil17" points="67.92,49.82 69.93,49.71 72.17,91.13 70.16,91.23 "/>
        <polygon id="_15_201" class="fil18" points="69.26,49.75 71.28,49.64 73.51,91.05 71.5,91.16 "/>
        <polygon id="_16_202" class="fil19" points="70.6,49.68 72.62,49.57 74.85,90.98 72.84,91.09 "/>
        <polygon id="_17_203" class="fil20" points="71.95,49.6 73.96,49.5 76.19,90.91 74.18,91.02 "/>
        <polygon id="_18_204" class="fil21" points="73.29,49.53 75.3,49.42 77.53,90.84 75.52,90.94 "/>
        <polygon id="_19_205" class="fil22" points="74.63,49.46 76.64,49.35 78.88,90.76 76.86,90.87 "/>
        <polygon id="_20_206" class="fil23" points="75.97,49.39 77.98,49.28 80.22,90.69 78.21,90.8 "/>
        <polygon id="_21_207" class="fil24" points="77.31,49.31 79.32,49.21 81.56,90.62 79.55,90.73 "/>
        <polygon id="_22_208" class="fil25" points="78.65,49.24 80.66,49.13 82.9,90.55 80.89,90.65 "/>
        <polygon id="_23_209" class="fil26" points="79.99,49.17 82,49.06 84.24,90.47 82.23,90.58 "/>
        <polygon id="_24_210" class="fil27" points="81.33,49.1 83.34,48.99 85.58,90.4 83.57,90.51 "/>
        <polygon id="_25_211" class="fil28" points="82.67,49.02 84.68,48.92 86.92,90.33 84.91,90.44 "/>
        <polygon id="_26_212" class="fil29" points="84.01,48.95 86.02,48.84 88.26,90.26 86.25,90.36 "/>
        <polygon id="_27_213" class="fil30" points="85.35,48.88 87.36,48.77 89.6,90.18 87.59,90.29 "/>
        <polygon id="_28_214" class="fil31" points="86.69,48.81 88.7,48.7 90.94,90.11 88.93,90.22 "/>
        <polygon id="_29_215" class="fil32" points="88.03,48.73 90.04,48.63 92.28,90.04 90.27,90.15 "/>
        <polygon id="_30_216" class="fil33" points="89.37,48.66 91.39,48.55 93.62,89.97 91.61,90.07 "/>
        <polygon id="_31_217" class="fil34" points="90.72,48.59 92.73,48.48 94.96,89.89 92.95,90 "/>
        <polygon id="_32_218" class="fil35" points="92.06,48.52 94.07,48.41 96.3,89.82 94.29,89.93 "/>
        <polygon id="_33_219" class="fil36" points="93.4,48.45 95.41,48.34 97.65,89.75 95.63,89.86 "/>
        <polygon id="_34_220" class="fil37" points="94.74,48.37 96.75,48.26 98.99,89.68 96.97,89.79 "/>
        <polygon id="_35_221" class="fil38" points="96.08,48.3 98.09,48.19 100.33,89.6 98.32,89.71 "/>
        <polygon id="_36_222" class="fil39" points="97.42,48.23 99.43,48.12 101.67,89.53 99.66,89.64 "/>
        <polygon id="_37_223" class="fil40" points="98.76,48.16 100.77,48.05 103.01,89.46 101,89.57 "/>
        <polygon id="_38_224" class="fil41" points="100.1,48.08 102.11,47.97 104.35,89.39 102.34,89.5 "/>
        <polygon id="_39_225" class="fil42" points="101.44,48.01 103.45,47.9 105.69,89.31 103.68,89.42 "/>
        <polygon id="_40_226" class="fil43" points="102.78,47.94 104.79,47.83 107.03,89.24 105.02,89.35 "/>
        <polygon id="_41_227" class="fil43" points="104.12,47.87 106.13,47.76 108.37,89.17 106.36,89.28 "/>
        <polygon id="_42_228" class="fil43" points="105.46,47.79 107.47,47.68 109.71,89.1 107.7,89.21 "/>
        <polygon id="_43_229" class="fil43" points="106.8,47.72 108.81,47.61 111.05,89.02 109.04,89.13 "/>
        <polygon id="_44_230" class="fil43" points="108.14,47.65 110.16,47.54 112.39,88.95 110.38,89.06 "/>
        <polygon id="_45_231" class="fil43" points="109.48,47.58 111.5,47.47 113.73,88.88 111.72,88.99 "/>
        <polygon id="_46_232" class="fil43" points="110.83,47.5 112.84,47.39 115.07,88.81 113.06,88.92 "/>
        <polygon id="_47_233" class="fil43" points="112.17,47.43 114.18,47.32 116.41,88.73 114.4,88.84 "/>
        <polygon id="_48_234" class="fil43" points="113.51,47.36 115.52,47.25 117.76,88.66 115.74,88.77 "/>
        <polygon id="_49_235" class="fil43" points="114.85,47.29 116.86,47.18 119.1,88.59 117.08,88.7 "/>
        <polygon id="_50_236" class="fil43" points="116.19,47.21 118.2,47.11 120.44,88.52 118.43,88.63 "/>
        <polygon id="_51_237" class="fil43" points="117.53,47.14 119.54,47.03 121.78,88.44 119.77,88.55 "/>
        <polygon id="_52_238" class="fil43" points="118.87,47.07 120.88,46.96 123.12,88.37 121.11,88.48 "/>
        <polygon id="_53_239" class="fil43" points="120.21,47 122.22,46.89 124.46,88.3 122.45,88.41 "/>
        <polygon id="_54_240" class="fil43" points="121.55,46.92 123.56,46.82 125.8,88.23 123.79,88.34 "/>
        <polygon id="_55_241" class="fil43" points="122.89,46.85 124.9,46.74 127.14,88.16 125.13,88.26 "/>
        <polygon id="_56_242" class="fil43" points="124.23,46.78 126.24,46.67 128.48,88.08 126.47,88.19 "/>
        <polygon id="_57_243" class="fil43" points="125.57,46.71 127.58,46.6 129.82,88.01 127.81,88.12 "/>
        <polygon id="_58_244" class="fil43" points="126.91,46.63 128.92,46.53 131.16,87.94 129.15,88.05 "/>
        <polygon id="_59_245" class="fil43" points="128.25,46.56 130.27,46.45 132.5,87.87 130.49,87.97 "/>
        <polygon id="_60_246" class="fil43" points="129.59,46.49 131.61,46.38 133.84,87.79 131.83,87.9 "/>
        <polygon id="_61_247" class="fil43" points="130.94,46.42 132.95,46.31 135.18,87.72 133.17,87.83 "/>
        <polygon id="_62_248" class="fil43" points="132.28,46.34 131.69,46.38 133.93,87.79 134.51,87.76 "/>
       </g>
      </g>
     </g>
     <g>
      <g style="clip-path:url(#id8)">
       <polygon class="fil93" points="41.24,45.36 42.71,45.26 44.67,73.98 43.2,74.08 "/>
       <polygon id="_1_249" class="fil1" points="41.97,45.31 44.19,45.16 46.15,73.88 43.93,74.03 "/>
       <polygon id="_2_250" class="fil94" points="43.45,45.21 45.67,45.06 47.63,73.78 45.41,73.93 "/>
       <polygon id="_3_251" class="fil95" points="44.93,45.11 47.15,44.96 49.11,73.68 46.89,73.83 "/>
       <polygon id="_4_252" class="fil96" points="46.41,45.01 48.63,44.86 50.59,73.58 48.37,73.73 "/>
       <polygon id="_5_253" class="fil97" points="47.89,44.91 50.11,44.76 52.07,73.48 49.85,73.63 "/>
       <polygon id="_6_254" class="fil98" points="49.37,44.81 51.59,44.66 53.55,73.38 51.33,73.53 "/>
       <polygon id="_7_255" class="fil99" points="50.85,44.71 53.07,44.56 55.03,73.28 52.81,73.43 "/>
       <polygon id="_8_256" class="fil97" points="52.33,44.61 54.55,44.46 56.51,73.18 54.29,73.33 "/>
       <polygon id="_9_257" class="fil100" points="53.81,44.51 56.03,44.36 57.99,73.08 55.77,73.23 "/>
       <polygon id="_10_258" class="fil0" points="55.29,44.41 57.51,44.26 59.47,72.97 57.25,73.13 "/>
       <polygon id="_11_259" class="fil1" points="56.77,44.31 58.99,44.15 60.94,72.87 58.73,73.03 "/>
       <polygon id="_12_260" class="fil2" points="58.25,44.2 60.47,44.05 62.42,72.77 60.21,72.92 "/>
       <polygon id="_13_261" class="fil3" points="59.73,44.1 61.95,43.95 63.9,72.67 61.68,72.82 "/>
       <polygon id="_14_262" class="fil4" points="61.21,44 63.43,43.85 65.38,72.57 63.16,72.72 "/>
       <polygon id="_15_263" class="fil5" points="62.69,43.9 64.91,43.75 66.86,72.47 64.64,72.62 "/>
       <polygon id="_16_264" class="fil6" points="64.17,43.8 66.39,43.65 68.34,72.37 66.12,72.52 "/>
       <polygon id="_17_265" class="fil7" points="65.65,43.7 67.87,43.55 69.82,72.27 67.6,72.42 "/>
       <polygon id="_18_266" class="fil8" points="67.13,43.6 69.35,43.45 71.3,72.17 69.08,72.32 "/>
       <polygon id="_19_267" class="fil9" points="68.61,43.5 70.82,43.35 72.78,72.07 70.56,72.22 "/>
       <polygon id="_20_268" class="fil10" points="70.09,43.4 72.3,43.25 74.26,71.97 72.04,72.12 "/>
       <polygon id="_21_269" class="fil11" points="71.56,43.3 73.78,43.15 75.74,71.87 73.52,72.02 "/>
       <polygon id="_22_270" class="fil12" points="73.04,43.2 75.26,43.05 77.22,71.77 75,71.92 "/>
       <polygon id="_23_271" class="fil13" points="74.52,43.1 76.74,42.95 78.7,71.66 76.48,71.82 "/>
       <polygon id="_24_272" class="fil14" points="76,43 78.22,42.84 80.18,71.56 77.96,71.72 "/>
       <polygon id="_25_273" class="fil15" points="77.48,42.89 79.7,42.74 81.66,71.46 79.44,71.61 "/>
       <polygon id="_26_274" class="fil16" points="78.96,42.79 81.18,42.64 83.14,71.36 80.92,71.51 "/>
       <polygon id="_27_275" class="fil17" points="80.44,42.69 82.66,42.54 84.62,71.26 82.4,71.41 "/>
       <polygon id="_28_276" class="fil18" points="81.92,42.59 84.14,42.44 86.1,71.16 83.88,71.31 "/>
       <polygon id="_29_277" class="fil19" points="83.4,42.49 85.62,42.34 87.58,71.06 85.36,71.21 "/>
       <polygon id="_30_278" class="fil20" points="84.88,42.39 87.1,42.24 89.06,70.96 86.84,71.11 "/>
       <polygon id="_31_279" class="fil21" points="86.36,42.29 88.58,42.14 90.54,70.86 88.32,71.01 "/>
       <polygon id="_32_280" class="fil22" points="87.84,42.19 90.06,42.04 92.01,70.76 89.8,70.91 "/>
       <polygon id="_33_281" class="fil23" points="89.32,42.09 91.54,41.94 93.49,70.66 91.27,70.81 "/>
       <polygon id="_34_282" class="fil24" points="90.8,41.99 93.02,41.84 94.97,70.56 92.75,70.71 "/>
       <polygon id="_35_283" class="fil25" points="92.28,41.89 94.5,41.74 96.45,70.46 94.23,70.61 "/>
       <polygon id="_36_284" class="fil26" points="93.76,41.79 95.98,41.64 97.93,70.35 95.71,70.51 "/>
       <polygon id="_37_285" class="fil27" points="95.24,41.69 97.46,41.53 99.41,70.25 97.19,70.41 "/>
       <polygon id="_38_286" class="fil28" points="96.72,41.58 98.94,41.43 100.89,70.15 98.67,70.3 "/>
       <polygon id="_39_287" class="fil29" points="98.2,41.48 100.42,41.33 102.37,70.05 100.15,70.2 "/>
       <polygon id="_40_288" class="fil30" points="99.68,41.38 101.89,41.23 103.85,69.95 101.63,70.1 "/>
       <polygon id="_41_289" class="fil31" points="101.16,41.28 103.37,41.13 105.33,69.85 103.11,70 "/>
       <polygon id="_42_290" class="fil32" points="102.63,41.18 104.85,41.03 106.81,69.75 104.59,69.9 "/>
       <polygon id="_43_291" class="fil33" points="104.11,41.08 106.33,40.93 108.29,69.65 106.07,69.8 "/>
       <polygon id="_44_292" class="fil34" points="105.59,40.98 107.81,40.83 109.77,69.55 107.55,69.7 "/>
       <polygon id="_45_293" class="fil35" points="107.07,40.88 109.29,40.73 111.25,69.45 109.03,69.6 "/>
       <polygon id="_46_294" class="fil36" points="108.55,40.78 110.77,40.63 112.73,69.35 110.51,69.5 "/>
       <polygon id="_47_295" class="fil37" points="110.03,40.68 112.25,40.53 114.21,69.25 111.99,69.4 "/>
       <polygon id="_48_296" class="fil38" points="111.51,40.58 113.73,40.43 115.69,69.15 113.47,69.3 "/>
       <polygon id="_49_297" class="fil39" points="112.99,40.48 115.21,40.33 117.17,69.04 114.95,69.2 "/>
       <polygon id="_50_298" class="fil40" points="114.47,40.38 116.69,40.22 118.65,68.94 116.43,69.09 "/>
       <polygon id="_51_299" class="fil41" points="115.95,40.27 118.17,40.12 120.13,68.84 117.91,68.99 "/>
       <polygon id="_52_300" class="fil42" points="117.43,40.17 119.65,40.02 121.61,68.74 119.39,68.89 "/>
       <polygon id="_53_301" class="fil43" points="118.91,40.07 121.13,39.92 123.08,68.64 120.87,68.79 "/>
       <polygon id="_54_302" class="fil43" points="120.39,39.97 122.61,39.82 124.56,68.54 122.35,68.69 "/>
       <polygon id="_55_303" class="fil43" points="121.87,39.87 124.09,39.72 126.04,68.44 123.82,68.59 "/>
       <polygon id="_56_304" class="fil43" points="123.35,39.77 125.57,39.62 127.52,68.34 125.3,68.49 "/>
       <polygon id="_57_305" class="fil43" points="124.83,39.67 127.05,39.52 129,68.24 126.78,68.39 "/>
       <polygon id="_58_306" class="fil43" points="126.31,39.57 128.53,39.42 130.48,68.14 128.26,68.29 "/>
       <polygon id="_59_307" class="fil43" points="127.79,39.47 130.01,39.32 131.96,68.04 129.74,68.19 "/>
       <polygon id="_60_308" class="fil43" points="129.27,39.37 131.49,39.22 133.44,67.94 131.22,68.09 "/>
       <polygon id="_61_309" class="fil43" points="130.75,39.27 132.96,39.12 134.92,67.84 132.7,67.99 "/>
       <polygon id="_62_310" class="fil43" points="132.22,39.17 131.43,39.22 133.39,67.94 134.18,67.89 "/>
      </g>
     </g>
     <g>
      <g style="clip-path:url(#id9)">
       <polygon class="fil93" points="46.73,30.54 47.75,30.42 50.93,58.26 49.9,58.38 "/>
       <polygon id="_1_311" class="fil1" points="47.19,30.48 48.88,30.29 52.06,58.13 50.36,58.32 "/>
       <polygon id="_2_312" class="fil94" points="48.32,30.35 50.02,30.16 53.19,58 51.5,58.19 "/>
       <polygon id="_3_313" class="fil95" points="49.45,30.23 51.15,30.03 54.32,57.87 52.63,58.07 "/>
       <polygon id="_4_314" class="fil96" points="50.58,30.1 52.28,29.9 55.46,57.74 53.76,57.94 "/>
       <polygon id="_5_315" class="fil97" points="51.71,29.97 53.41,29.77 56.59,57.61 54.89,57.81 "/>
       <polygon id="_6_316" class="fil98" points="52.84,29.84 54.54,29.64 57.72,57.48 56.02,57.68 "/>
       <polygon id="_7_317" class="fil99" points="53.98,29.71 55.67,29.52 58.85,57.36 57.15,57.55 "/>
       <polygon id="_8_318" class="fil97" points="55.11,29.58 56.8,29.39 59.98,57.23 58.28,57.42 "/>
       <polygon id="_9_319" class="fil100" points="56.24,29.45 57.94,29.26 61.11,57.1 59.42,57.29 "/>
       <polygon id="_10_320" class="fil0" points="57.37,29.32 59.07,29.13 62.24,56.97 60.55,57.16 "/>
       <polygon id="_11_321" class="fil1" points="58.5,29.19 60.2,29 63.38,56.84 61.68,57.03 "/>
       <polygon id="_12_322" class="fil2" points="59.63,29.06 61.33,28.87 64.51,56.71 62.81,56.9 "/>
       <polygon id="_13_323" class="fil3" points="60.76,28.93 62.46,28.74 65.64,56.58 63.94,56.77 "/>
       <polygon id="_14_324" class="fil4" points="61.9,28.81 63.59,28.61 66.77,56.45 65.07,56.65 "/>
       <polygon id="_15_325" class="fil5" points="63.03,28.68 64.72,28.48 67.9,56.32 66.2,56.52 "/>
       <polygon id="_16_326" class="fil6" points="64.16,28.55 65.86,28.35 69.03,56.19 67.33,56.39 "/>
       <polygon id="_17_327" class="fil7" points="65.29,28.42 66.99,28.22 70.16,56.06 68.47,56.26 "/>
       <polygon id="_18_328" class="fil8" points="66.42,28.29 68.12,28.1 71.3,55.93 69.6,56.13 "/>
       <polygon id="_19_329" class="fil9" points="67.55,28.16 69.25,27.97 72.43,55.81 70.73,56 "/>
       <polygon id="_20_330" class="fil10" points="68.68,28.03 70.38,27.84 73.56,55.68 71.86,55.87 "/>
       <polygon id="_21_331" class="fil11" points="69.81,27.9 71.51,27.71 74.69,55.55 72.99,55.74 "/>
       <polygon id="_22_332" class="fil12" points="70.95,27.77 72.64,27.58 75.82,55.42 74.12,55.61 "/>
       <polygon id="_23_333" class="fil13" points="72.08,27.64 73.77,27.45 76.95,55.29 75.25,55.48 "/>
       <polygon id="_24_334" class="fil14" points="73.21,27.51 74.91,27.32 78.08,55.16 76.39,55.35 "/>
       <polygon id="_25_335" class="fil15" points="74.34,27.39 76.04,27.19 79.21,55.03 77.52,55.22 "/>
       <polygon id="_26_336" class="fil16" points="75.47,27.26 77.17,27.06 80.35,54.9 78.65,55.1 "/>
       <polygon id="_27_337" class="fil17" points="76.6,27.13 78.3,26.93 81.48,54.77 79.78,54.97 "/>
       <polygon id="_28_338" class="fil18" points="77.73,27 79.43,26.8 82.61,54.64 80.91,54.84 "/>
       <polygon id="_29_339" class="fil19" points="78.87,26.87 80.56,26.67 83.74,54.51 82.04,54.71 "/>
       <polygon id="_30_340" class="fil20" points="80,26.74 81.69,26.55 84.87,54.39 83.17,54.58 "/>
       <polygon id="_31_341" class="fil21" points="81.13,26.61 82.83,26.42 86,54.26 84.31,54.45 "/>
       <polygon id="_32_342" class="fil22" points="82.26,26.48 83.96,26.29 87.13,54.13 85.44,54.32 "/>
       <polygon id="_33_343" class="fil23" points="83.39,26.35 85.09,26.16 88.27,54 86.57,54.19 "/>
       <polygon id="_34_344" class="fil24" points="84.52,26.22 86.22,26.03 89.4,53.87 87.7,54.06 "/>
       <polygon id="_35_345" class="fil25" points="85.65,26.09 87.35,25.9 90.53,53.74 88.83,53.93 "/>
       <polygon id="_36_346" class="fil26" points="86.79,25.96 88.48,25.77 91.66,53.61 89.96,53.8 "/>
       <polygon id="_37_347" class="fil27" points="87.92,25.84 89.61,25.64 92.79,53.48 91.09,53.68 "/>
       <polygon id="_38_348" class="fil28" points="89.05,25.71 90.75,25.51 93.92,53.35 92.23,53.55 "/>
       <polygon id="_39_349" class="fil29" points="90.18,25.58 91.88,25.38 95.05,53.22 93.36,53.42 "/>
       <polygon id="_40_350" class="fil30" points="91.31,25.45 93.01,25.25 96.19,53.09 94.49,53.29 "/>
       <polygon id="_41_351" class="fil31" points="92.44,25.32 94.14,25.13 97.32,52.97 95.62,53.16 "/>
       <polygon id="_42_352" class="fil32" points="93.57,25.19 95.27,25 98.45,52.84 96.75,53.03 "/>
       <polygon id="_43_353" class="fil33" points="94.71,25.06 96.4,24.87 99.58,52.71 97.88,52.9 "/>
       <polygon id="_44_354" class="fil34" points="95.84,24.93 97.53,24.74 100.71,52.58 99.01,52.77 "/>
       <polygon id="_45_355" class="fil35" points="96.97,24.8 98.67,24.61 101.84,52.45 100.14,52.64 "/>
       <polygon id="_46_356" class="fil36" points="98.1,24.67 99.8,24.48 102.97,52.32 101.28,52.51 "/>
       <polygon id="_47_357" class="fil37" points="99.23,24.54 100.93,24.35 104.11,52.19 102.41,52.38 "/>
       <polygon id="_48_358" class="fil38" points="100.36,24.42 102.06,24.22 105.24,52.06 103.54,52.26 "/>
       <polygon id="_49_359" class="fil39" points="101.49,24.29 103.19,24.09 106.37,51.93 104.67,52.13 "/>
       <polygon id="_50_360" class="fil40" points="102.62,24.16 104.32,23.96 107.5,51.8 105.8,52 "/>
       <polygon id="_51_361" class="fil41" points="103.76,24.03 105.45,23.83 108.63,51.67 106.93,51.87 "/>
       <polygon id="_52_362" class="fil42" points="104.89,23.9 106.58,23.71 109.76,51.54 108.06,51.74 "/>
       <polygon id="_53_363" class="fil43" points="106.02,23.77 107.72,23.58 110.89,51.42 109.2,51.61 "/>
       <polygon id="_54_364" class="fil43" points="107.15,23.64 108.85,23.45 112.02,51.29 110.33,51.48 "/>
       <polygon id="_55_365" class="fil43" points="108.28,23.51 109.98,23.32 113.16,51.16 111.46,51.35 "/>
       <polygon id="_56_366" class="fil43" points="109.41,23.38 111.11,23.19 114.29,51.03 112.59,51.22 "/>
       <polygon id="_57_367" class="fil43" points="110.54,23.25 112.24,23.06 115.42,50.9 113.72,51.09 "/>
       <polygon id="_58_368" class="fil43" points="111.68,23.12 113.37,22.93 116.55,50.77 114.85,50.96 "/>
       <polygon id="_59_369" class="fil43" points="112.81,22.99 114.5,22.8 117.68,50.64 115.98,50.83 "/>
       <polygon id="_60_370" class="fil43" points="113.94,22.87 115.64,22.67 118.81,50.51 117.12,50.71 "/>
       <polygon id="_61_371" class="fil43" points="115.07,22.74 116.77,22.54 119.94,50.38 118.25,50.58 "/>
       <polygon id="_62_372" class="fil43" points="116.2,22.61 115.61,22.68 118.79,50.52 119.38,50.45 "/>
      </g>
     </g>
     <g>
      <g style="clip-path:url(#id10)">
       <polygon class="fil2" points="40.96,43.86 41.93,43.83 42.94,70.7 41.96,70.74 "/>
       <polygon id="_1_373" class="fil3" points="41.19,43.86 43.42,43.77 44.42,70.64 42.2,70.73 "/>
       <polygon id="_2_374" class="fil4" points="42.68,43.8 44.9,43.72 45.91,70.59 43.68,70.67 "/>
       <polygon id="_3_375" class="fil5" points="44.16,43.74 46.38,43.66 47.39,70.53 45.16,70.62 "/>
       <polygon id="_4_376" class="fil6" points="45.64,43.69 47.87,43.61 48.87,70.48 46.65,70.56 "/>
       <polygon id="_5_377" class="fil7" points="47.12,43.63 49.35,43.55 50.36,70.42 48.13,70.5 "/>
       <polygon id="_6_378" class="fil8" points="48.61,43.58 50.83,43.5 51.84,70.37 49.61,70.45 "/>
       <polygon id="_7_379" class="fil9" points="50.09,43.52 52.32,43.44 53.32,70.31 51.1,70.39 "/>
       <polygon id="_8_380" class="fil10" points="51.58,43.47 53.8,43.38 54.81,70.26 52.58,70.34 "/>
       <polygon id="_9_381" class="fil11" points="53.06,43.41 55.28,43.33 56.29,70.2 54.06,70.28 "/>
       <polygon id="_10_382" class="fil12" points="54.54,43.36 56.77,43.27 57.77,70.14 55.55,70.23 "/>
       <polygon id="_11_383" class="fil13" points="56.03,43.3 58.25,43.22 59.26,70.09 57.03,70.17 "/>
       <polygon id="_12_384" class="fil14" points="57.51,43.25 59.73,43.16 60.74,70.03 58.51,70.12 "/>
       <polygon id="_13_385" class="fil15" points="58.99,43.19 61.22,43.11 62.22,69.98 60,70.06 "/>
       <polygon id="_14_386" class="fil16" points="60.48,43.13 62.7,43.05 63.71,69.92 61.48,70.01 "/>
       <polygon id="_15_387" class="fil17" points="61.96,43.08 64.18,43 65.19,69.87 62.96,69.95 "/>
       <polygon id="_16_388" class="fil18" points="63.44,43.02 65.67,42.94 66.67,69.81 64.45,69.89 "/>
       <polygon id="_17_389" class="fil19" points="64.93,42.97 67.15,42.88 68.16,69.76 65.93,69.84 "/>
       <polygon id="_18_390" class="fil20" points="66.41,42.91 68.63,42.83 69.64,69.7 67.41,69.78 "/>
       <polygon id="_19_391" class="fil21" points="67.89,42.86 70.12,42.77 71.12,69.64 68.9,69.73 "/>
       <polygon id="_20_392" class="fil22" points="69.38,42.8 71.6,42.72 72.61,69.59 70.38,69.67 "/>
       <polygon id="_21_393" class="fil23" points="70.86,42.75 73.08,42.66 74.09,69.53 71.86,69.62 "/>
       <polygon id="_22_394" class="fil24" points="72.34,42.69 74.57,42.61 75.57,69.48 73.35,69.56 "/>
       <polygon id="_23_395" class="fil25" points="73.83,42.64 76.05,42.55 77.06,69.42 74.83,69.51 "/>
       <polygon id="_24_396" class="fil26" points="75.31,42.58 77.53,42.5 78.54,69.37 76.31,69.45 "/>
       <polygon id="_25_397" class="fil27" points="76.79,42.52 79.02,42.44 80.02,69.31 77.8,69.39 "/>
       <polygon id="_26_398" class="fil28" points="78.28,42.47 80.5,42.38 81.51,69.26 79.28,69.34 "/>
       <polygon id="_27_399" class="fil29" points="79.76,42.41 81.98,42.33 82.99,69.2 80.76,69.28 "/>
       <polygon id="_28_400" class="fil30" points="81.24,42.36 83.47,42.27 84.47,69.14 82.25,69.23 "/>
       <polygon id="_29_401" class="fil31" points="82.73,42.3 84.95,42.22 85.96,69.09 83.73,69.17 "/>
       <polygon id="_30_402" class="fil32" points="84.21,42.25 86.43,42.16 87.44,69.03 85.21,69.12 "/>
       <polygon id="_31_403" class="fil33" points="85.69,42.19 87.92,42.11 88.92,68.98 86.7,69.06 "/>
       <polygon id="_32_404" class="fil34" points="87.18,42.14 89.4,42.05 90.41,68.92 88.18,69.01 "/>
       <polygon id="_33_405" class="fil35" points="88.66,42.08 90.88,42 91.89,68.87 89.66,68.95 "/>
       <polygon id="_34_406" class="fil36" points="90.14,42.02 92.37,41.94 93.37,68.81 91.15,68.9 "/>
       <polygon id="_35_407" class="fil37" points="91.63,41.97 93.85,41.89 94.86,68.76 92.63,68.84 "/>
       <polygon id="_36_408" class="fil38" points="93.11,41.91 95.33,41.83 96.34,68.7 94.11,68.78 "/>
       <polygon id="_37_409" class="fil39" points="94.59,41.86 96.82,41.77 97.82,68.65 95.6,68.73 "/>
       <polygon id="_38_410" class="fil40" points="96.08,41.8 98.3,41.72 99.31,68.59 97.08,68.67 "/>
       <polygon id="_39_411" class="fil41" points="97.56,41.75 99.78,41.66 100.79,68.53 98.56,68.62 "/>
       <polygon id="_40_412" class="fil42" points="99.04,41.69 101.27,41.61 102.27,68.48 100.05,68.56 "/>
       <polygon id="_41_413" class="fil43" points="100.53,41.64 102.75,41.55 103.76,68.42 101.53,68.51 "/>
       <polygon id="_42_414" class="fil43" points="102.01,41.58 104.23,41.5 105.24,68.37 103.01,68.45 "/>
       <polygon id="_43_415" class="fil43" points="103.49,41.52 105.72,41.44 106.72,68.31 104.5,68.4 "/>
       <polygon id="_44_416" class="fil43" points="104.98,41.47 107.2,41.39 108.21,68.26 105.98,68.34 "/>
       <polygon id="_45_417" class="fil43" points="106.46,41.41 108.68,41.33 109.69,68.2 107.46,68.28 "/>
       <polygon id="_46_418" class="fil43" points="107.94,41.36 110.17,41.28 111.17,68.15 108.95,68.23 "/>
       <polygon id="_47_419" class="fil43" points="109.43,41.3 111.65,41.22 112.66,68.09 110.43,68.17 "/>
       <polygon id="_48_420" class="fil43" points="110.91,41.25 113.13,41.16 114.14,68.03 111.91,68.12 "/>
       <polygon id="_49_421" class="fil43" points="112.39,41.19 114.62,41.11 115.62,67.98 113.4,68.06 "/>
       <polygon id="_50_422" class="fil43" points="113.88,41.14 116.1,41.05 117.11,67.92 114.88,68.01 "/>
       <polygon id="_51_423" class="fil43" points="115.36,41.08 117.58,41 118.59,67.87 116.36,67.95 "/>
       <polygon id="_52_424" class="fil43" points="116.84,41.03 119.07,40.94 120.07,67.81 117.85,67.9 "/>
       <polygon id="_53_425" class="fil43" points="118.33,40.97 120.55,40.89 121.56,67.76 119.33,67.84 "/>
       <polygon id="_54_426" class="fil43" points="119.81,40.91 122.03,40.83 123.04,67.7 120.82,67.78 "/>
       <polygon id="_55_427" class="fil43" points="121.29,40.86 123.52,40.78 124.52,67.65 122.3,67.73 "/>
       <polygon id="_56_428" class="fil43" points="122.78,40.8 125,40.72 126.01,67.59 123.78,67.67 "/>
       <polygon id="_57_429" class="fil43" points="124.26,40.75 126.48,40.66 127.49,67.54 125.26,67.62 "/>
       <polygon id="_58_430" class="fil43" points="125.74,40.69 127.97,40.61 128.97,67.48 126.75,67.56 "/>
       <polygon id="_59_431" class="fil43" points="127.23,40.64 129.45,40.55 130.46,67.42 128.23,67.51 "/>
       <polygon id="_60_432" class="fil43" points="128.71,40.58 130.93,40.5 131.94,67.37 129.71,67.45 "/>
       <polygon id="_61_433" class="fil43" points="130.19,40.53 132.42,40.44 133.42,67.31 131.2,67.4 "/>
       <polygon id="_62_434" class="fil43" points="131.68,40.47 133.9,40.39 134.91,67.26 132.68,67.34 "/>
       <polygon id="_63_435" class="fil43" points="133.16,40.41 131.95,40.46 132.96,67.33 134.17,67.29 "/>
      </g>
     </g>
    </g>
   </g>
  </g>
 </g>
</svg>
